<?xml version="1.0" encoding="utf-8"?>
<!-- Generator: Adobe Illustrator 17.1.0, SVG Export Plug-In . SVG Version: 6.00 Build 0)  -->
<!DOCTYPE svg PUBLIC "-//W3C//DTD SVG 1.1//EN" "http://www.w3.org/Graphics/SVG/1.1/DTD/svg11.dtd">
<svg version="1.1" id="Layer_1" xmlns="http://www.w3.org/2000/svg" xmlns:xlink="http://www.w3.org/1999/xlink" x="0px" y="0px"
	 viewBox="0 0 972 765" enable-background="new 0 0 972 765" xml:space="preserve">
<line fill="#FFFFFF" stroke="#A3A3A3" stroke-width="2" stroke-miterlimit="10" x1="889" y1="478" x2="332" y2="478"/>
<line fill="#FFFFFF" stroke="#A3A3A3" stroke-width="2" stroke-miterlimit="10" x1="332" y1="525" x2="332" y2="478"/>
<rect x="8" y="524" fill="#76A0FF" width="232" height="232"/>
<rect x="562" y="524" fill="#76A0FF" width="232" height="232"/>
<rect x="263" y="524" fill="#76A0FF" width="137" height="142"/>
<rect x="823" y="521" fill="#76A0FF" width="136" height="142"/>
<rect x="310" y="109" fill="#76A0FF" width="232" height="232"/>
<circle fill="#FFFFFF" cx="749.6" cy="223.2" r="69.6"/>
<line fill="#FFFFFF" stroke="#A3A3A3" stroke-width="2" stroke-miterlimit="10" x1="889" y1="525" x2="889" y2="478"/>
<line fill="#FFFFFF" stroke="#A3A3A3" stroke-width="2" stroke-miterlimit="10" x1="750" y1="478" x2="750" y2="306"/>
<line fill="#FFFFFF" stroke="#A3A3A3" stroke-width="2" stroke-miterlimit="10" x1="680" y1="223" x2="558" y2="223"/>
<g>
	<rect x="315" y="207" fill="none" width="225" height="36"/>
	<path fill="#FFFFFF" d="M390.2,234.4v-10.9c0-1.3-0.2-2.3-0.6-3s-1-1-1.8-1c-1.2,0-2,0.5-2.5,1.4s-0.8,2.5-0.8,4.8v8.7h-6.9v-19.9
		h5.2l0.9,2.5h0.4c0.6-0.9,1.4-1.6,2.4-2.1s2.2-0.7,3.6-0.7c2.2,0,3.9,0.6,5.1,1.9s1.8,3.1,1.8,5.4v13H390.2z"/>
	<path fill="#FFFFFF" d="M420.6,214.4v3.3l-2.7,1c0.4,0.7,0.6,1.5,0.6,2.4c0,2.1-0.8,3.8-2.3,5s-3.8,1.8-6.7,1.8
		c-0.7,0-1.3,0-1.8-0.1c-0.2,0.3-0.2,0.6-0.2,0.9c0,0.3,0.3,0.6,0.8,0.8s1.3,0.3,2.2,0.3h3.3c4.5,0,6.7,1.9,6.7,5.6
		c0,2.4-1,4.3-3.1,5.7s-5,2-8.7,2c-2.8,0-5-0.5-6.5-1.4c-1.5-0.9-2.3-2.3-2.3-4.1c0-2.4,1.5-3.9,4.4-4.6c-0.6-0.3-1.1-0.7-1.6-1.2
		s-0.7-1.1-0.7-1.7c0-0.6,0.2-1.2,0.5-1.6s1-1,2.1-1.7c-1-0.5-1.8-1.2-2.4-2.1s-0.9-2.2-0.9-3.6c0-2.2,0.7-3.8,2.2-5
		s3.6-1.8,6.3-1.8c0.4,0,1,0,1.9,0.1s1.5,0.2,2,0.2H420.6z M405.6,236.8c0,0.6,0.3,1,0.9,1.4c0.6,0.3,1.4,0.5,2.4,0.5
		c1.7,0,3-0.2,4-0.6c1-0.4,1.5-1,1.5-1.6c0-0.5-0.3-0.9-0.9-1.1s-1.5-0.3-2.6-0.3h-2.7c-0.7,0-1.4,0.2-1.9,0.5
		S405.6,236.3,405.6,236.8z M407.7,221c0,2,0.7,3.1,2.1,3.1c0.7,0,1.2-0.3,1.5-0.8s0.5-1.3,0.5-2.3c0-2.1-0.7-3.1-2.1-3.1
		C408.4,217.9,407.7,218.9,407.7,221z"/>
	<path fill="#FFFFFF" d="M423.4,209.5c0-1,0.3-1.8,0.9-2.3s1.5-0.8,2.8-0.8s2.2,0.3,2.8,0.8s0.9,1.3,0.9,2.3c0,2-1.2,3-3.7,3
		C424.7,212.5,423.4,211.5,423.4,209.5z M430.5,234.4h-6.9v-19.9h6.9V234.4z"/>
	<path fill="#FFFFFF" d="M447.9,234.4v-10.9c0-1.3-0.2-2.3-0.6-3s-1-1-1.8-1c-1.2,0-2,0.5-2.5,1.4s-0.8,2.5-0.8,4.8v8.7h-6.9v-19.9
		h5.2l0.9,2.5h0.4c0.6-0.9,1.4-1.6,2.4-2.1s2.2-0.7,3.6-0.7c2.2,0,3.9,0.6,5.1,1.9s1.8,3.1,1.8,5.4v13H447.9z"/>
	<path fill="#FFFFFF" d="M463.6,224.2l-6.1-9.8h7.8l3,5.6l3.1-5.6h7.8l-6.2,9.8l6.5,10.2h-7.8l-3.4-6l-3.3,6h-7.8L463.6,224.2z"/>
</g>
<g>
	<rect x="567" y="630" fill="none" width="225" height="36"/>
	<path fill="#FFFFFF" d="M628,657.4l-1.3-2.6h-0.1c-0.9,1.1-1.9,1.9-2.8,2.4s-2.2,0.6-3.7,0.6c-1.9,0-3.4-0.6-4.4-1.7
		s-1.6-2.7-1.6-4.7c0-2.1,0.7-3.7,2.2-4.7s3.6-1.6,6.4-1.8l3.3-0.1v-0.3c0-1.6-0.8-2.5-2.4-2.5c-1.5,0-3.3,0.5-5.5,1.5l-2-4.5
		c2.3-1.2,5.3-1.8,8.8-1.8c2.6,0,4.5,0.6,5.9,1.9s2.1,3,2.1,5.3v13.1H628z M622.9,652.9c0.8,0,1.5-0.3,2.1-0.8s0.9-1.2,0.9-2.1v-1.5
		l-1.6,0.1c-2.3,0.1-3.4,0.9-3.4,2.5C620.9,652.3,621.6,652.9,622.9,652.9z"/>
	<path fill="#FFFFFF" d="M649.4,657.7c-1,0-1.9-0.2-2.7-0.5s-1.6-0.9-2.4-1.8H644c0.2,1.4,0.3,2.3,0.3,2.6v8h-6.9v-28.6h5.6l1,2.5
		h0.3c1.3-1.9,3-2.9,5.3-2.9c2.2,0,3.9,0.9,5.2,2.7s1.9,4.3,1.9,7.5c0,3.2-0.7,5.7-2,7.6S651.6,657.7,649.4,657.7z M647.1,642.5
		c-1,0-1.7,0.4-2.1,1.1s-0.6,1.8-0.7,3.2v0.5c0,1.7,0.2,2.9,0.7,3.7s1.2,1.1,2.2,1.1c0.9,0,1.5-0.4,1.9-1.1s0.6-2,0.6-3.8
		c0-1.7-0.2-2.9-0.6-3.7S648,642.5,647.1,642.5z"/>
	<path fill="#FFFFFF" d="M673.5,657.4l-1.3-2.6h-0.1c-0.9,1.1-1.9,1.9-2.8,2.4s-2.2,0.6-3.7,0.6c-1.9,0-3.4-0.6-4.4-1.7
		s-1.6-2.7-1.6-4.7c0-2.1,0.7-3.7,2.2-4.7s3.6-1.6,6.4-1.8l3.3-0.1v-0.3c0-1.6-0.8-2.5-2.4-2.5c-1.5,0-3.3,0.5-5.5,1.5l-2-4.5
		c2.3-1.2,5.3-1.8,8.8-1.8c2.6,0,4.5,0.6,5.9,1.9s2.1,3,2.1,5.3v13.1H673.5z M668.5,652.9c0.8,0,1.5-0.3,2.1-0.8s0.9-1.2,0.9-2.1
		v-1.5l-1.6,0.1c-2.3,0.1-3.4,0.9-3.4,2.5C666.5,652.3,667.2,652.9,668.5,652.9z"/>
	<path fill="#FFFFFF" d="M692.1,657.7c-3.3,0-5.7-0.9-7.4-2.6s-2.5-4.3-2.5-7.6c0-3.3,0.9-5.9,2.7-7.7s4.4-2.7,7.8-2.7
		c2.3,0,4.5,0.5,6.5,1.5l-2,5.1c-0.8-0.4-1.6-0.7-2.3-0.9s-1.4-0.3-2.2-0.3c-1.1,0-2,0.4-2.6,1.3s-0.9,2.1-0.9,3.7
		c0,3.2,1.2,4.8,3.5,4.8c2,0,3.9-0.6,5.8-1.8v5.5C696.7,657.1,694.5,657.7,692.1,657.7z"/>
	<path fill="#FFFFFF" d="M714.9,657.4v-10.9c0-2.7-0.8-4-2.4-4c-1.1,0-2,0.5-2.5,1.4s-0.8,2.5-0.8,4.7v8.8h-6.9V630h6.9v3.9
		c0,1.8-0.1,3.8-0.3,6h0.3c0.7-1,1.4-1.8,2.3-2.2s2-0.6,3.1-0.6c2.2,0,4,0.6,5.2,1.9s1.9,3.1,1.9,5.4v13H714.9z"/>
	<path fill="#FFFFFF" d="M736.1,657.7c-3.3,0-5.9-0.9-7.7-2.6s-2.8-4.3-2.8-7.5c0-3.4,0.8-5.9,2.5-7.7s4.1-2.7,7.3-2.7
		c3,0,5.3,0.8,7,2.3s2.5,3.8,2.5,6.8v3.1h-12.3c0,1.1,0.5,2,1.2,2.6s1.8,0.9,3.1,0.9c1.2,0,2.3-0.1,3.3-0.3s2.1-0.6,3.3-1.2v4.9
		c-1.1,0.6-2.2,0.9-3.3,1.1S737.7,657.7,736.1,657.7z M735.7,641.8c-0.8,0-1.5,0.3-2,0.8s-0.9,1.3-1,2.4h5.9c0-1-0.3-1.7-0.8-2.3
		S736.6,641.8,735.7,641.8z"/>
</g>
<g>
	<rect x="9" y="630" fill="none" width="234" height="36"/>
	<path fill="#FFFFFF" d="M74.5,657.4l-1.3-2.6H73c-0.9,1.1-1.9,1.9-2.8,2.4s-2.2,0.6-3.7,0.6c-1.9,0-3.4-0.6-4.4-1.7
		s-1.6-2.7-1.6-4.7c0-2.1,0.7-3.7,2.2-4.7s3.6-1.6,6.4-1.8l3.3-0.1v-0.3c0-1.6-0.8-2.5-2.4-2.5c-1.5,0-3.3,0.5-5.5,1.5l-2-4.5
		c2.3-1.2,5.3-1.8,8.8-1.8c2.6,0,4.5,0.6,5.9,1.9s2.1,3,2.1,5.3v13.1H74.5z M69.4,652.9c0.8,0,1.5-0.3,2.1-0.8s0.9-1.2,0.9-2.1v-1.5
		l-1.6,0.1c-2.3,0.1-3.4,0.9-3.4,2.5C67.4,652.3,68.1,652.9,69.4,652.9z"/>
	<path fill="#FFFFFF" d="M95.9,657.7c-1,0-1.9-0.2-2.7-0.5s-1.6-0.9-2.4-1.8h-0.3c0.2,1.4,0.3,2.3,0.3,2.6v8h-6.9v-28.6h5.6l1,2.5
		h0.3c1.3-1.9,3-2.9,5.3-2.9c2.2,0,3.9,0.9,5.2,2.7s1.9,4.3,1.9,7.5c0,3.2-0.7,5.7-2,7.6S98.1,657.7,95.9,657.7z M93.6,642.5
		c-1,0-1.7,0.4-2.1,1.1s-0.6,1.8-0.7,3.2v0.5c0,1.7,0.2,2.9,0.7,3.7s1.2,1.1,2.2,1.1c0.9,0,1.5-0.4,1.9-1.1s0.6-2,0.6-3.8
		c0-1.7-0.2-2.9-0.6-3.7S94.5,642.5,93.6,642.5z"/>
	<path fill="#FFFFFF" d="M120,657.4l-1.3-2.6h-0.1c-0.9,1.1-1.9,1.9-2.8,2.4s-2.2,0.6-3.7,0.6c-1.9,0-3.4-0.6-4.4-1.7
		s-1.6-2.7-1.6-4.7c0-2.1,0.7-3.7,2.2-4.7s3.6-1.6,6.4-1.8l3.3-0.1v-0.3c0-1.6-0.8-2.5-2.4-2.5c-1.5,0-3.3,0.5-5.5,1.5l-2-4.5
		c2.3-1.2,5.3-1.8,8.8-1.8c2.6,0,4.5,0.6,5.9,1.9s2.1,3,2.1,5.3v13.1H120z M115,652.9c0.8,0,1.5-0.3,2.1-0.8s0.9-1.2,0.9-2.1v-1.5
		l-1.6,0.1c-2.3,0.1-3.4,0.9-3.4,2.5C113,652.3,113.7,652.9,115,652.9z"/>
	<path fill="#FFFFFF" d="M138.6,657.7c-3.3,0-5.7-0.9-7.4-2.6s-2.5-4.3-2.5-7.6c0-3.3,0.9-5.9,2.7-7.7s4.4-2.7,7.8-2.7
		c2.3,0,4.5,0.5,6.5,1.5l-2,5.1c-0.8-0.4-1.6-0.7-2.3-0.9s-1.4-0.3-2.2-0.3c-1.1,0-2,0.4-2.6,1.3s-0.9,2.1-0.9,3.7
		c0,3.2,1.2,4.8,3.5,4.8c2,0,3.9-0.6,5.8-1.8v5.5C143.2,657.1,141,657.7,138.6,657.7z"/>
	<path fill="#FFFFFF" d="M161.4,657.4v-10.9c0-2.7-0.8-4-2.4-4c-1.1,0-2,0.5-2.5,1.4s-0.8,2.5-0.8,4.7v8.8h-6.9V630h6.9v3.9
		c0,1.8-0.1,3.8-0.3,6h0.3c0.7-1,1.4-1.8,2.3-2.2s2-0.6,3.1-0.6c2.2,0,4,0.6,5.2,1.9s1.9,3.1,1.9,5.4v13H161.4z"/>
	<path fill="#FFFFFF" d="M182.6,657.7c-3.3,0-5.9-0.9-7.7-2.6s-2.8-4.3-2.8-7.5c0-3.4,0.8-5.9,2.5-7.7s4.1-2.7,7.3-2.7
		c3,0,5.3,0.8,7,2.3s2.5,3.8,2.5,6.8v3.1h-12.3c0,1.1,0.5,2,1.2,2.6s1.8,0.9,3.1,0.9c1.2,0,2.3-0.1,3.3-0.3s2.1-0.6,3.3-1.2v4.9
		c-1.1,0.6-2.2,0.9-3.3,1.1S184.2,657.7,182.6,657.7z M182.2,641.8c-0.8,0-1.5,0.3-2,0.8s-0.9,1.3-1,2.4h5.9c0-1-0.3-1.7-0.8-2.3
		S183.1,641.8,182.2,641.8z"/>
</g>
<g>
	<rect x="189" y="567" fill="none" width="288" height="72"/>
	<path fill="#FFFFFF" d="M298.6,585.2l-0.9-1.8h-0.1c-0.6,0.8-1.2,1.3-1.9,1.6s-1.5,0.4-2.5,0.4c-1.3,0-2.2-0.4-3-1.1
		s-1.1-1.8-1.1-3.2c0-1.4,0.5-2.5,1.5-3.2s2.4-1.1,4.3-1.2l2.2-0.1v-0.2c0-1.1-0.5-1.6-1.6-1.6c-1,0-2.2,0.3-3.7,1l-1.3-3
		c1.5-0.8,3.5-1.2,5.9-1.2c1.7,0,3,0.4,4,1.3s1.4,2,1.4,3.5v8.7H298.6z M295.2,582.2c0.6,0,1-0.2,1.4-0.5s0.6-0.8,0.6-1.4v-1l-1.1,0
		c-1.5,0.1-2.3,0.6-2.3,1.7C293.9,581.8,294.4,582.2,295.2,582.2z"/>
	<path fill="#FFFFFF" d="M312.9,585.5c-0.7,0-1.3-0.1-1.8-0.3s-1.1-0.6-1.6-1.2h-0.2c0.1,0.9,0.2,1.5,0.2,1.7v5.3h-4.6v-19h3.7
		l0.6,1.7h0.2c0.9-1.3,2-1.9,3.5-1.9c1.5,0,2.6,0.6,3.5,1.8s1.3,2.9,1.3,5c0,2.1-0.4,3.8-1.3,5.1S314.4,585.5,312.9,585.5z
		 M311.4,575.3c-0.7,0-1.1,0.2-1.4,0.7s-0.4,1.2-0.4,2.1v0.4c0,1.1,0.2,2,0.5,2.5s0.8,0.8,1.4,0.8c0.6,0,1-0.3,1.3-0.8
		s0.4-1.3,0.4-2.5c0-1.1-0.1-2-0.4-2.5S312,575.3,311.4,575.3z"/>
	<path fill="#FFFFFF" d="M329,585.2l-0.9-1.8h-0.1c-0.6,0.8-1.2,1.3-1.9,1.6s-1.5,0.4-2.5,0.4c-1.3,0-2.2-0.4-3-1.1
		s-1.1-1.8-1.1-3.2c0-1.4,0.5-2.5,1.5-3.2s2.4-1.1,4.3-1.2l2.2-0.1v-0.2c0-1.1-0.5-1.6-1.6-1.6c-1,0-2.2,0.3-3.7,1l-1.3-3
		c1.5-0.8,3.5-1.2,5.9-1.2c1.7,0,3,0.4,4,1.3s1.4,2,1.4,3.5v8.7H329z M325.6,582.2c0.6,0,1-0.2,1.4-0.5s0.6-0.8,0.6-1.4v-1l-1.1,0
		c-1.5,0.1-2.3,0.6-2.3,1.7C324.3,581.8,324.8,582.2,325.6,582.2z"/>
	<path fill="#FFFFFF" d="M341.4,585.5c-2.2,0-3.8-0.6-4.9-1.8s-1.7-2.9-1.7-5.1c0-2.2,0.6-3.9,1.8-5.1s2.9-1.8,5.2-1.8
		c1.5,0,3,0.3,4.3,1l-1.3,3.4c-0.6-0.2-1.1-0.4-1.5-0.6s-1-0.2-1.5-0.2c-0.7,0-1.3,0.3-1.7,0.9s-0.6,1.4-0.6,2.4
		c0,2.1,0.8,3.2,2.4,3.2c1.3,0,2.6-0.4,3.9-1.2v3.6C344.4,585.1,343,585.5,341.4,585.5z"/>
	<path fill="#FFFFFF" d="M356.6,585.2V578c0-1.8-0.5-2.7-1.6-2.7c-0.8,0-1.3,0.3-1.7,0.9s-0.5,1.7-0.5,3.1v5.8h-4.6V567h4.6v2.6
		c0,1.2-0.1,2.5-0.2,4h0.2c0.4-0.7,1-1.2,1.6-1.5s1.3-0.4,2.1-0.4c1.5,0,2.6,0.4,3.5,1.3s1.2,2.1,1.2,3.6v8.6H356.6z"/>
	<path fill="#FFFFFF" d="M370.8,585.5c-2.2,0-3.9-0.6-5.2-1.8s-1.8-2.8-1.8-5c0-2.2,0.6-4,1.7-5.2s2.8-1.8,4.9-1.8
		c2,0,3.5,0.5,4.6,1.6s1.6,2.5,1.6,4.5v2h-8.2c0,0.7,0.3,1.3,0.8,1.7s1.2,0.6,2.1,0.6c0.8,0,1.5-0.1,2.2-0.2s1.4-0.4,2.2-0.8v3.3
		c-0.7,0.4-1.5,0.6-2.2,0.8S371.8,585.5,370.8,585.5z M370.5,574.8c-0.5,0-1,0.2-1.4,0.5s-0.6,0.9-0.6,1.6h3.9
		c0-0.6-0.2-1.2-0.5-1.5S371.1,574.8,370.5,574.8z"/>
	<path fill="#FFFFFF" d="M278.9,614.3c-0.9,0-1.8-0.3-2.5-0.8s-1.3-1.3-1.6-2.4s-0.6-2.3-0.6-3.7c0-2.2,0.4-3.8,1.3-5.1
		s2.1-1.8,3.6-1.8c0.7,0,1.4,0.1,2,0.4s1.1,0.8,1.5,1.5h0.1c-0.1-1-0.2-2.1-0.2-3.1v-3.6h4.6V614h-3.5l-1-1.7h-0.2
		C281.6,613.6,280.4,614.3,278.9,614.3z M280.8,610.7c0.7,0,1.3-0.2,1.6-0.7s0.5-1.2,0.5-2.1v-0.4c0-1.2-0.2-2-0.5-2.5
		s-0.9-0.7-1.6-0.7c-0.6,0-1.1,0.3-1.4,0.8s-0.5,1.4-0.5,2.4c0,1,0.2,1.8,0.5,2.4S280.1,610.7,280.8,610.7z"/>
	<path fill="#FFFFFF" d="M290.1,597.5c0-0.7,0.2-1.2,0.6-1.5s1-0.5,1.9-0.5s1.5,0.2,1.9,0.5s0.6,0.9,0.6,1.5c0,1.3-0.8,2-2.4,2
		C290.9,599.5,290.1,598.8,290.1,597.5z M294.8,614h-4.6v-13.3h4.6V614z"/>
	<path fill="#FFFFFF" d="M308.2,610c0,1.4-0.5,2.5-1.5,3.2s-2.4,1.1-4.2,1.1c-1,0-1.8-0.1-2.6-0.2s-1.5-0.3-2.2-0.6v-3.7
		c0.7,0.3,1.5,0.6,2.3,0.8s1.6,0.3,2.3,0.3c1,0,1.5-0.2,1.5-0.7c0-0.2-0.1-0.4-0.4-0.6s-1.1-0.5-2.4-1.1c-1.2-0.5-2.1-1.1-2.6-1.7
		s-0.7-1.4-0.7-2.4c0-1.2,0.5-2.2,1.4-2.9s2.3-1,4-1c0.9,0,1.7,0.1,2.5,0.3s1.6,0.5,2.4,0.8l-1.2,3c-0.6-0.3-1.3-0.5-1.9-0.7
		s-1.2-0.3-1.7-0.3c-0.8,0-1.1,0.2-1.1,0.6c0,0.2,0.1,0.4,0.4,0.6s1,0.5,2.3,1c0.9,0.4,1.6,0.8,2.1,1.1s0.8,0.8,1,1.3
		S308.2,609.3,308.2,610z"/>
	<path fill="#FFFFFF" d="M316.8,614.3c-2.2,0-3.8-0.6-4.9-1.8s-1.7-2.9-1.7-5.1c0-2.2,0.6-3.9,1.8-5.1s2.9-1.8,5.2-1.8
		c1.5,0,3,0.3,4.3,1l-1.3,3.4c-0.6-0.2-1.1-0.4-1.5-0.6s-1-0.2-1.5-0.2c-0.7,0-1.3,0.3-1.7,0.9s-0.6,1.4-0.6,2.4
		c0,2.1,0.8,3.2,2.4,3.2c1.3,0,2.6-0.4,3.9-1.2v3.6C319.9,613.9,318.5,614.3,316.8,614.3z"/>
	<path fill="#FFFFFF" d="M336.4,607.4c0,2.2-0.6,3.9-1.8,5.1s-2.8,1.8-4.9,1.8c-2,0-3.6-0.6-4.8-1.9s-1.8-2.9-1.8-5
		c0-2.2,0.6-3.8,1.8-5s2.8-1.8,4.9-1.8c1.3,0,2.5,0.3,3.5,0.8s1.8,1.3,2.3,2.4S336.4,606,336.4,607.4z M327.8,607.4
		c0,1.1,0.2,2,0.5,2.6s0.8,0.9,1.5,0.9c0.7,0,1.2-0.3,1.5-0.9s0.4-1.5,0.4-2.6c0-1.1-0.1-2-0.4-2.6s-0.8-0.9-1.5-0.9
		c-0.7,0-1.2,0.3-1.5,0.9S327.8,606.2,327.8,607.4z"/>
	<path fill="#FFFFFF" d="M342.5,614l-5.1-13.3h4.8l2.3,7.9c0,0,0,0.1,0,0.2s0,0.2,0.1,0.3s0,0.3,0.1,0.4s0,0.3,0,0.4h0.1
		c0-0.4,0.1-0.8,0.2-1.3l2.4-7.9h4.8L347,614H342.5z"/>
	<path fill="#FFFFFF" d="M360.1,614.3c-2.2,0-3.9-0.6-5.2-1.8s-1.8-2.8-1.8-5c0-2.2,0.6-4,1.7-5.2s2.8-1.8,4.9-1.8
		c2,0,3.5,0.5,4.6,1.6s1.6,2.5,1.6,4.5v2h-8.2c0,0.7,0.3,1.3,0.8,1.7s1.2,0.6,2.1,0.6c0.8,0,1.5-0.1,2.2-0.2s1.4-0.4,2.2-0.8v3.3
		c-0.7,0.4-1.5,0.6-2.2,0.8S361.2,614.3,360.1,614.3z M359.8,603.6c-0.5,0-1,0.2-1.4,0.5s-0.6,0.9-0.6,1.6h3.9
		c0-0.6-0.2-1.2-0.5-1.5S360.4,603.6,359.8,603.6z"/>
	<path fill="#FFFFFF" d="M376.5,600.5c0.4,0,0.8,0,1.1,0.1l0.3,0l-0.4,4.3c-0.4-0.1-0.9-0.1-1.6-0.1c-1,0-1.7,0.2-2.2,0.7
		s-0.7,1.1-0.7,2v6.5h-4.6v-13.3h3.4l0.7,2.1h0.2c0.4-0.7,0.9-1.3,1.6-1.7S375.8,600.5,376.5,600.5z"/>
	<path fill="#FFFFFF" d="M378.2,600.8h4.8l2.3,7.6c0.1,0.4,0.2,0.9,0.2,1.4h0.1c0.1-0.5,0.2-1,0.3-1.4l2.3-7.6h4.7l-5.3,14.1
		c-0.7,1.8-1.5,3.1-2.5,3.8s-2.3,1.1-3.8,1.1c-0.6,0-1.2-0.1-1.9-0.2V616c0.4,0.1,0.9,0.1,1.4,0.1c0.4,0,0.8-0.1,1.1-0.2
		s0.6-0.4,0.8-0.7s0.5-0.8,0.7-1.4L378.2,600.8z"/>
</g>
<g>
	<rect x="747" y="567" fill="none" width="288" height="72"/>
	<path fill="#FFFFFF" d="M856.6,585.2l-0.9-1.8h-0.1c-0.6,0.8-1.2,1.3-1.9,1.6s-1.5,0.4-2.5,0.4c-1.3,0-2.2-0.4-3-1.1
		s-1.1-1.8-1.1-3.2c0-1.4,0.5-2.5,1.5-3.2s2.4-1.1,4.3-1.2l2.2-0.1v-0.2c0-1.1-0.5-1.6-1.6-1.6c-1,0-2.2,0.3-3.7,1l-1.3-3
		c1.5-0.8,3.5-1.2,5.9-1.2c1.7,0,3,0.4,4,1.3s1.4,2,1.4,3.5v8.7H856.6z M853.2,582.2c0.6,0,1-0.2,1.4-0.5s0.6-0.8,0.6-1.4v-1l-1.1,0
		c-1.5,0.1-2.3,0.6-2.3,1.7C851.9,581.8,852.4,582.2,853.2,582.2z"/>
	<path fill="#FFFFFF" d="M870.9,585.5c-0.7,0-1.3-0.1-1.8-0.3s-1.1-0.6-1.6-1.2h-0.2c0.1,0.9,0.2,1.5,0.2,1.7v5.3h-4.6v-19h3.7
		l0.6,1.7h0.2c0.9-1.3,2-1.9,3.5-1.9c1.5,0,2.6,0.6,3.5,1.8s1.3,2.9,1.3,5c0,2.1-0.4,3.8-1.3,5.1S872.4,585.5,870.9,585.5z
		 M869.4,575.3c-0.7,0-1.1,0.2-1.4,0.7s-0.4,1.2-0.4,2.1v0.4c0,1.1,0.2,2,0.5,2.5s0.8,0.8,1.4,0.8c0.6,0,1-0.3,1.3-0.8
		s0.4-1.3,0.4-2.5c0-1.1-0.1-2-0.4-2.5S870,575.3,869.4,575.3z"/>
	<path fill="#FFFFFF" d="M887,585.2l-0.9-1.8h-0.1c-0.6,0.8-1.2,1.3-1.9,1.6s-1.5,0.4-2.5,0.4c-1.3,0-2.2-0.4-3-1.1
		s-1.1-1.8-1.1-3.2c0-1.4,0.5-2.5,1.5-3.2s2.4-1.1,4.3-1.2l2.2-0.1v-0.2c0-1.1-0.5-1.6-1.6-1.6c-1,0-2.2,0.3-3.7,1l-1.3-3
		c1.5-0.8,3.5-1.2,5.9-1.2c1.7,0,3,0.4,4,1.3s1.4,2,1.4,3.5v8.7H887z M883.6,582.2c0.6,0,1-0.2,1.4-0.5s0.6-0.8,0.6-1.4v-1l-1.1,0
		c-1.5,0.1-2.3,0.6-2.3,1.7C882.3,581.8,882.8,582.2,883.6,582.2z"/>
	<path fill="#FFFFFF" d="M899.4,585.5c-2.2,0-3.8-0.6-4.9-1.8s-1.7-2.9-1.7-5.1c0-2.2,0.6-3.9,1.8-5.1s2.9-1.8,5.2-1.8
		c1.5,0,3,0.3,4.3,1l-1.3,3.4c-0.6-0.2-1.1-0.4-1.5-0.6s-1-0.2-1.5-0.2c-0.7,0-1.3,0.3-1.7,0.9s-0.6,1.4-0.6,2.4
		c0,2.1,0.8,3.2,2.4,3.2c1.3,0,2.6-0.4,3.9-1.2v3.6C902.4,585.1,901,585.5,899.4,585.5z"/>
	<path fill="#FFFFFF" d="M914.6,585.2V578c0-1.8-0.5-2.7-1.6-2.7c-0.8,0-1.3,0.3-1.7,0.9s-0.5,1.7-0.5,3.1v5.8h-4.6V567h4.6v2.6
		c0,1.2-0.1,2.5-0.2,4h0.2c0.4-0.7,1-1.2,1.6-1.5s1.3-0.4,2.1-0.4c1.5,0,2.6,0.4,3.5,1.3s1.2,2.1,1.2,3.6v8.6H914.6z"/>
	<path fill="#FFFFFF" d="M928.8,585.5c-2.2,0-3.9-0.6-5.2-1.8s-1.8-2.8-1.8-5c0-2.2,0.6-4,1.7-5.2s2.8-1.8,4.9-1.8
		c2,0,3.5,0.5,4.6,1.6s1.6,2.5,1.6,4.5v2h-8.2c0,0.7,0.3,1.3,0.8,1.7s1.2,0.6,2.1,0.6c0.8,0,1.5-0.1,2.2-0.2s1.4-0.4,2.2-0.8v3.3
		c-0.7,0.4-1.5,0.6-2.2,0.8S929.8,585.5,928.8,585.5z M928.5,574.8c-0.5,0-1,0.2-1.4,0.5s-0.6,0.9-0.6,1.6h3.9
		c0-0.6-0.2-1.2-0.5-1.5S929.1,574.8,928.5,574.8z"/>
	<path fill="#FFFFFF" d="M836.9,614.3c-0.9,0-1.8-0.3-2.5-0.8s-1.3-1.3-1.6-2.4s-0.6-2.3-0.6-3.7c0-2.2,0.4-3.8,1.3-5.1
		s2.1-1.8,3.6-1.8c0.7,0,1.4,0.1,2,0.4s1.1,0.8,1.5,1.5h0.1c-0.1-1-0.2-2.1-0.2-3.1v-3.6h4.6V614h-3.5l-1-1.7h-0.2
		C839.6,613.6,838.4,614.3,836.9,614.3z M838.8,610.7c0.7,0,1.3-0.2,1.6-0.7s0.5-1.2,0.5-2.1v-0.4c0-1.2-0.2-2-0.5-2.5
		s-0.9-0.7-1.6-0.7c-0.6,0-1.1,0.3-1.4,0.8s-0.5,1.4-0.5,2.4c0,1,0.2,1.8,0.5,2.4S838.1,610.7,838.8,610.7z"/>
	<path fill="#FFFFFF" d="M848.1,597.5c0-0.7,0.2-1.2,0.6-1.5s1-0.5,1.9-0.5s1.5,0.2,1.9,0.5s0.6,0.9,0.6,1.5c0,1.3-0.8,2-2.4,2
		C848.9,599.5,848.1,598.8,848.1,597.5z M852.8,614h-4.6v-13.3h4.6V614z"/>
	<path fill="#FFFFFF" d="M866.2,610c0,1.4-0.5,2.5-1.5,3.2s-2.4,1.1-4.2,1.1c-1,0-1.8-0.1-2.6-0.2s-1.5-0.3-2.2-0.6v-3.7
		c0.7,0.3,1.5,0.6,2.3,0.8s1.6,0.3,2.3,0.3c1,0,1.5-0.2,1.5-0.7c0-0.2-0.1-0.4-0.4-0.6s-1.1-0.5-2.4-1.1c-1.2-0.5-2.1-1.1-2.6-1.7
		s-0.7-1.4-0.7-2.4c0-1.2,0.5-2.2,1.4-2.9s2.3-1,4-1c0.9,0,1.7,0.1,2.5,0.3s1.6,0.5,2.4,0.8l-1.2,3c-0.6-0.3-1.3-0.5-1.9-0.7
		s-1.2-0.3-1.7-0.3c-0.8,0-1.1,0.2-1.1,0.6c0,0.2,0.1,0.4,0.4,0.6s1,0.5,2.3,1c0.9,0.4,1.6,0.8,2.1,1.1s0.8,0.8,1,1.3
		S866.2,609.3,866.2,610z"/>
	<path fill="#FFFFFF" d="M874.8,614.3c-2.2,0-3.8-0.6-4.9-1.8s-1.7-2.9-1.7-5.1c0-2.2,0.6-3.9,1.8-5.1s2.9-1.8,5.2-1.8
		c1.5,0,3,0.3,4.3,1l-1.3,3.4c-0.6-0.2-1.1-0.4-1.5-0.6s-1-0.2-1.5-0.2c-0.7,0-1.3,0.3-1.7,0.9s-0.6,1.4-0.6,2.4
		c0,2.1,0.8,3.2,2.4,3.2c1.3,0,2.6-0.4,3.9-1.2v3.6C877.9,613.9,876.5,614.3,874.8,614.3z"/>
	<path fill="#FFFFFF" d="M894.4,607.4c0,2.2-0.6,3.9-1.8,5.1s-2.8,1.8-4.9,1.8c-2,0-3.6-0.6-4.8-1.9s-1.8-2.9-1.8-5
		c0-2.2,0.6-3.8,1.8-5s2.8-1.8,4.9-1.8c1.3,0,2.5,0.3,3.5,0.8s1.8,1.3,2.3,2.4S894.4,606,894.4,607.4z M885.8,607.4
		c0,1.1,0.2,2,0.5,2.6s0.8,0.9,1.5,0.9c0.7,0,1.2-0.3,1.5-0.9s0.4-1.5,0.4-2.6c0-1.1-0.1-2-0.4-2.6s-0.8-0.9-1.5-0.9
		c-0.7,0-1.2,0.3-1.5,0.9S885.8,606.2,885.8,607.4z"/>
	<path fill="#FFFFFF" d="M900.5,614l-5.1-13.3h4.8l2.3,7.9c0,0,0,0.1,0,0.2s0,0.2,0.1,0.3s0,0.3,0.1,0.4s0,0.3,0,0.4h0.1
		c0-0.4,0.1-0.8,0.2-1.3l2.4-7.9h4.8L905,614H900.5z"/>
	<path fill="#FFFFFF" d="M918.1,614.3c-2.2,0-3.9-0.6-5.2-1.8s-1.8-2.8-1.8-5c0-2.2,0.6-4,1.7-5.2s2.8-1.8,4.9-1.8
		c2,0,3.5,0.5,4.6,1.6s1.6,2.5,1.6,4.5v2h-8.2c0,0.7,0.3,1.3,0.8,1.7s1.2,0.6,2.1,0.6c0.8,0,1.5-0.1,2.2-0.2s1.4-0.4,2.2-0.8v3.3
		c-0.7,0.4-1.5,0.6-2.2,0.8S919.2,614.3,918.1,614.3z M917.8,603.6c-0.5,0-1,0.2-1.4,0.5s-0.6,0.9-0.6,1.6h3.9
		c0-0.6-0.2-1.2-0.5-1.5S918.4,603.6,917.8,603.6z"/>
	<path fill="#FFFFFF" d="M934.5,600.5c0.4,0,0.8,0,1.1,0.1l0.3,0l-0.4,4.3c-0.4-0.1-0.9-0.1-1.6-0.1c-1,0-1.7,0.2-2.2,0.7
		s-0.7,1.1-0.7,2v6.5h-4.6v-13.3h3.4l0.7,2.1h0.2c0.4-0.7,0.9-1.3,1.6-1.7S933.8,600.5,934.5,600.5z"/>
	<path fill="#FFFFFF" d="M936.2,600.8h4.8l2.3,7.6c0.1,0.4,0.2,0.9,0.2,1.4h0.1c0.1-0.5,0.2-1,0.3-1.4l2.3-7.6h4.7l-5.3,14.1
		c-0.7,1.8-1.5,3.1-2.5,3.8s-2.3,1.1-3.8,1.1c-0.6,0-1.2-0.1-1.9-0.2V616c0.4,0.1,0.9,0.1,1.4,0.1c0.4,0,0.8-0.1,1.1-0.2
		s0.6-0.4,0.8-0.7s0.5-0.8,0.7-1.4L936.2,600.8z"/>
</g>
<polyline fill="#ED1E79" points="680,524 671,506 689,506 "/>
<polyline fill="#ED1E79" points="121,524 112,506 130,506 "/>
<line fill="#FFFFFF" stroke="#ED1E79" stroke-width="3" stroke-miterlimit="10" x1="427.5" y1="102" x2="427.5" y2="20"/>
<polyline fill="#ED1E79" points="427,107 418,89 436,89 "/>
<polyline fill="#A3A3A3" points="750,293 759,311 741,311 "/>
<polyline fill="#A3A3A3" points="542,223 560,214 560,232 "/>
<g>
	<rect x="684" y="209.2" fill="none" width="135" height="33.8"/>
	<path fill="#D83A86" d="M722.8,237c-3.3,0-5.9-0.9-7.7-2.6s-2.8-4.3-2.8-7.5c0-3.4,0.8-5.9,2.5-7.7s4.1-2.7,7.3-2.7
		c3,0,5.3,0.8,7,2.3s2.5,3.8,2.5,6.8v3.1h-12.3c0,1.1,0.5,2,1.2,2.6s1.8,0.9,3.1,0.9c1.2,0,2.3-0.1,3.3-0.3s2.1-0.6,3.3-1.2v4.9
		c-1.1,0.6-2.2,0.9-3.3,1.1S724.4,237,722.8,237z M722.4,221c-0.8,0-1.5,0.3-2,0.8s-0.9,1.3-1,2.4h5.9c0-1-0.3-1.7-0.8-2.3
		S723.3,221,722.4,221z"/>
	<path fill="#D83A86" d="M745.2,231.5c0.9,0,2-0.2,3.3-0.7v5c-0.9,0.4-1.8,0.7-2.6,0.9s-1.8,0.3-2.9,0.3c-2.3,0-4-0.6-5-1.7
		s-1.5-2.9-1.5-5.2v-8.2H734V219l3.1-2.2l1.8-4.2h4.5v4h4.9v5.2h-4.9v7.8C743.3,230.9,744,231.5,745.2,231.5z"/>
	<path fill="#D83A86" d="M761.1,237c-3.3,0-5.7-0.9-7.4-2.6s-2.5-4.3-2.5-7.6c0-3.3,0.9-5.9,2.7-7.7s4.4-2.7,7.8-2.7
		c2.3,0,4.5,0.5,6.5,1.5l-2,5.1c-0.8-0.4-1.6-0.7-2.3-0.9s-1.4-0.3-2.2-0.3c-1.1,0-2,0.4-2.6,1.3s-0.9,2.1-0.9,3.7
		c0,3.2,1.2,4.8,3.5,4.8c2,0,3.9-0.6,5.8-1.8v5.5C765.7,236.4,763.6,237,761.1,237z"/>
	<path fill="#D83A86" d="M777.6,237c-1.4,0-2.7-0.4-3.7-1.2s-1.9-2-2.5-3.6s-0.9-3.4-0.9-5.5c0-3.2,0.7-5.8,2-7.6s3.1-2.7,5.4-2.7
		c1.1,0,2.1,0.2,2.9,0.7s1.6,1.2,2.3,2.3h0.1c-0.2-1.6-0.3-3.1-0.3-4.7v-5.3h6.9v27.4h-5.2l-1.5-2.5h-0.3
		C781.7,236,779.9,237,777.6,237z M780.4,231.5c1.1,0,1.9-0.3,2.3-1s0.7-1.8,0.7-3.2v-0.5c0-1.8-0.3-3-0.8-3.8s-1.3-1.1-2.4-1.1
		c-0.9,0-1.6,0.4-2.1,1.3s-0.7,2.1-0.7,3.6c0,1.5,0.3,2.7,0.8,3.5S779.5,231.5,780.4,231.5z"/>
</g>
<circle fill="#ED1E79" cx="427.5" cy="19.5" r="4.5"/>
<circle fill="#ED1E79" cx="426.5" cy="346.5" r="4.5"/>
<polyline fill="none" stroke="#ED1E79" stroke-width="3" stroke-miterlimit="10" points="121.3,506.3 121,433 426.5,432.7 
	426.5,347 "/>
<polyline fill="none" stroke="#ED1E79" stroke-width="3" stroke-miterlimit="10" points="679.5,515 679.5,432.5 426,432.5 "/>
<g>
</g>
<g>
</g>
<g>
</g>
<g>
</g>
<g>
</g>
<g>
</g>
<g>
</g>
<g>
</g>
<g>
</g>
<g>
</g>
<g>
</g>
<g>
</g>
<g>
</g>
<g>
</g>
<g>
</g>
</svg>
