<?xml version="1.0" encoding="utf-8"?>
<!-- Generator: Adobe Illustrator 17.1.0, SVG Export Plug-In . SVG Version: 6.00 Build 0)  -->
<!DOCTYPE svg PUBLIC "-//W3C//DTD SVG 1.1//EN" "http://www.w3.org/Graphics/SVG/1.1/DTD/svg11.dtd">
<svg version="1.1" id="lb_app" xmlns="http://www.w3.org/2000/svg" xmlns:xlink="http://www.w3.org/1999/xlink" x="0px" y="0px"
	 viewBox="0 0 972 765" enable-background="new 0 0 972 765" xml:space="preserve">
<polyline fill="none" stroke="#C1C1C1" stroke-width="2" stroke-miterlimit="10" points="747,306 747,450 324,450 324,513 "/>
<rect x="279" y="108" fill="#76A0FF" width="234" height="234"/>
<polyline fill="#ED1E79" points="396,108 387,90 405,90 "/>
<circle fill="#ED1E79" cx="396" cy="18" r="9"/>
<line fill="none" stroke="#ED1E79" stroke-width="2" stroke-miterlimit="10" x1="396" y1="18" x2="396" y2="99"/>
<rect x="9" y="522" fill="#76A0FF" width="234" height="234"/>
<polyline fill="#ED1E79" points="126,522 117,504 135,504 "/>
<polyline fill="none" stroke="#ED1E79" stroke-width="2" stroke-miterlimit="10" points="396,351 396,396 126,396 126,513 "/>
<circle fill="#ED1E79" cx="396" cy="351" r="9"/>
<rect x="576" y="522" fill="#76A0FF" width="234" height="234"/>
<polyline fill="#ED1E79" points="693,522 684,504 702,504 "/>
<polyline fill="none" stroke="#ED1E79" stroke-width="2" stroke-miterlimit="10" points="396,396 693,396 693,513 "/>
<rect x="252" y="522" fill="#76A0FF" width="144" height="144"/>
<rect x="819" y="522" fill="#76A0FF" width="144" height="144"/>
<circle fill="#F4F4F4" cx="747" cy="225" r="72"/>
<polyline fill="#C1C1C1" points="747,297 756,315 738,315 "/>
<circle fill="#C1C1C1" cx="324" cy="513" r="9"/>
<circle fill="#C1C1C1" cx="891" cy="513" r="9"/>
<polyline fill="none" stroke="#C1C1C1" stroke-width="2" stroke-miterlimit="10" points="747,450 891,450 891,513 "/>
<polyline fill="#C1C1C1" points="531,216 531,234 513,225 "/>
<line fill="none" stroke="#C1C1C1" stroke-width="2" stroke-miterlimit="10" x1="522" y1="225" x2="675" y2="225"/>
<circle fill="#C1C1C1" cx="666" cy="225" r="9"/>
<g>
	<rect x="279" y="207" fill="none" width="234" height="36"/>
	<path fill="#FFFFFF" d="M358.7,234.4v-10.9c0-1.3-0.2-2.3-0.6-3s-1-1-1.8-1c-1.2,0-2,0.5-2.5,1.4s-0.8,2.5-0.8,4.8v8.7h-6.9v-19.9
		h5.2l0.9,2.5h0.4c0.6-0.9,1.4-1.6,2.4-2.1s2.2-0.7,3.6-0.7c2.2,0,3.9,0.6,5.1,1.9s1.8,3.1,1.8,5.4v13H358.7z"/>
	<path fill="#FFFFFF" d="M389.1,214.4v3.3l-2.7,1c0.4,0.7,0.6,1.5,0.6,2.4c0,2.1-0.8,3.8-2.3,5s-3.8,1.8-6.7,1.8
		c-0.7,0-1.3,0-1.8-0.1c-0.2,0.3-0.2,0.6-0.2,0.9c0,0.3,0.3,0.6,0.8,0.8s1.3,0.3,2.2,0.3h3.3c4.5,0,6.7,1.9,6.7,5.6
		c0,2.4-1,4.3-3.1,5.7s-5,2-8.7,2c-2.8,0-5-0.5-6.5-1.4c-1.5-0.9-2.3-2.3-2.3-4.1c0-2.4,1.5-3.9,4.4-4.6c-0.6-0.3-1.1-0.7-1.6-1.2
		s-0.7-1.1-0.7-1.7c0-0.6,0.2-1.2,0.5-1.6s1-1,2.1-1.7c-1-0.5-1.8-1.2-2.4-2.1s-0.9-2.2-0.9-3.6c0-2.2,0.7-3.8,2.2-5
		s3.6-1.8,6.3-1.8c0.4,0,1,0,1.9,0.1s1.5,0.2,2,0.2H389.1z M374.1,236.8c0,0.6,0.3,1,0.9,1.4c0.6,0.3,1.4,0.5,2.4,0.5
		c1.7,0,3-0.2,4-0.6c1-0.4,1.5-1,1.5-1.6c0-0.5-0.3-0.9-0.9-1.1s-1.5-0.3-2.6-0.3h-2.7c-0.7,0-1.4,0.2-1.9,0.5
		S374.1,236.3,374.1,236.8z M376.2,221c0,2,0.7,3.1,2.1,3.1c0.7,0,1.2-0.3,1.5-0.8s0.5-1.3,0.5-2.3c0-2.1-0.7-3.1-2.1-3.1
		C376.9,217.9,376.2,218.9,376.2,221z"/>
	<path fill="#FFFFFF" d="M391.9,209.5c0-1,0.3-1.8,0.9-2.3s1.5-0.8,2.8-0.8s2.2,0.3,2.8,0.8s0.9,1.3,0.9,2.3c0,2-1.2,3-3.7,3
		C393.2,212.5,391.9,211.5,391.9,209.5z M399,234.4h-6.9v-19.9h6.9V234.4z"/>
	<path fill="#FFFFFF" d="M416.4,234.4v-10.9c0-1.3-0.2-2.3-0.6-3s-1-1-1.8-1c-1.2,0-2,0.5-2.5,1.4s-0.8,2.5-0.8,4.8v8.7h-6.9v-19.9
		h5.2l0.9,2.5h0.4c0.6-0.9,1.4-1.6,2.4-2.1s2.2-0.7,3.6-0.7c2.2,0,3.9,0.6,5.1,1.9s1.8,3.1,1.8,5.4v13H416.4z"/>
	<path fill="#FFFFFF" d="M432.1,224.2l-6.1-9.8h7.8l3,5.6l3.1-5.6h7.8l-6.2,9.8l6.5,10.2h-7.8l-3.4-6l-3.3,6h-7.8L432.1,224.2z"/>
</g>
<g>
	<rect x="9" y="621" fill="none" width="234" height="36"/>
	<path fill="#FFFFFF" d="M74.5,648.4l-1.3-2.6H73c-0.9,1.1-1.9,1.9-2.8,2.4s-2.2,0.6-3.7,0.6c-1.9,0-3.4-0.6-4.4-1.7
		s-1.6-2.7-1.6-4.7c0-2.1,0.7-3.7,2.2-4.7s3.6-1.6,6.4-1.8l3.3-0.1v-0.3c0-1.6-0.8-2.5-2.4-2.5c-1.5,0-3.3,0.5-5.5,1.5l-2-4.5
		c2.3-1.2,5.3-1.8,8.8-1.8c2.6,0,4.5,0.6,5.9,1.9s2.1,3,2.1,5.3v13.1H74.5z M69.4,643.9c0.8,0,1.5-0.3,2.1-0.8s0.9-1.2,0.9-2.1v-1.5
		l-1.6,0.1c-2.3,0.1-3.4,0.9-3.4,2.5C67.4,643.3,68.1,643.9,69.4,643.9z"/>
	<path fill="#FFFFFF" d="M95.9,648.7c-1,0-1.9-0.2-2.7-0.5s-1.6-0.9-2.4-1.8h-0.3c0.2,1.4,0.3,2.3,0.3,2.6v8h-6.9v-28.6h5.6l1,2.5
		h0.3c1.3-1.9,3-2.9,5.3-2.9c2.2,0,3.9,0.9,5.2,2.7s1.9,4.3,1.9,7.5c0,3.2-0.7,5.7-2,7.6S98.1,648.7,95.9,648.7z M93.6,633.5
		c-1,0-1.7,0.4-2.1,1.1s-0.6,1.8-0.7,3.2v0.5c0,1.7,0.2,2.9,0.7,3.7s1.2,1.1,2.2,1.1c0.9,0,1.5-0.4,1.9-1.1s0.6-2,0.6-3.8
		c0-1.7-0.2-2.9-0.6-3.7S94.5,633.5,93.6,633.5z"/>
	<path fill="#FFFFFF" d="M120,648.4l-1.3-2.6h-0.1c-0.9,1.1-1.9,1.9-2.8,2.4s-2.2,0.6-3.7,0.6c-1.9,0-3.4-0.6-4.4-1.7
		s-1.6-2.7-1.6-4.7c0-2.1,0.7-3.7,2.2-4.7s3.6-1.6,6.4-1.8l3.3-0.1v-0.3c0-1.6-0.8-2.5-2.4-2.5c-1.5,0-3.3,0.5-5.5,1.5l-2-4.5
		c2.3-1.2,5.3-1.8,8.8-1.8c2.6,0,4.5,0.6,5.9,1.9s2.1,3,2.1,5.3v13.1H120z M115,643.9c0.8,0,1.5-0.3,2.1-0.8s0.9-1.2,0.9-2.1v-1.5
		l-1.6,0.1c-2.3,0.1-3.4,0.9-3.4,2.5C113,643.3,113.7,643.9,115,643.9z"/>
	<path fill="#FFFFFF" d="M138.6,648.7c-3.3,0-5.7-0.9-7.4-2.6s-2.5-4.3-2.5-7.6c0-3.3,0.9-5.9,2.7-7.7s4.4-2.7,7.8-2.7
		c2.3,0,4.5,0.5,6.5,1.5l-2,5.1c-0.8-0.4-1.6-0.7-2.3-0.9s-1.4-0.3-2.2-0.3c-1.1,0-2,0.4-2.6,1.3s-0.9,2.1-0.9,3.7
		c0,3.2,1.2,4.8,3.5,4.8c2,0,3.9-0.6,5.8-1.8v5.5C143.2,648.1,141,648.7,138.6,648.7z"/>
	<path fill="#FFFFFF" d="M161.4,648.4v-10.9c0-2.7-0.8-4-2.4-4c-1.1,0-2,0.5-2.5,1.4s-0.8,2.5-0.8,4.7v8.8h-6.9V621h6.9v3.9
		c0,1.8-0.1,3.8-0.3,6h0.3c0.7-1,1.4-1.8,2.3-2.2s2-0.6,3.1-0.6c2.2,0,4,0.6,5.2,1.9s1.9,3.1,1.9,5.4v13H161.4z"/>
	<path fill="#FFFFFF" d="M182.6,648.7c-3.3,0-5.9-0.9-7.7-2.6s-2.8-4.3-2.8-7.5c0-3.4,0.8-5.9,2.5-7.7s4.1-2.7,7.3-2.7
		c3,0,5.3,0.8,7,2.3s2.5,3.8,2.5,6.8v3.1h-12.3c0,1.1,0.5,2,1.2,2.6s1.8,0.9,3.1,0.9c1.2,0,2.3-0.1,3.3-0.3s2.1-0.6,3.3-1.2v4.9
		c-1.1,0.6-2.2,0.9-3.3,1.1S184.2,648.7,182.6,648.7z M182.2,632.8c-0.8,0-1.5,0.3-2,0.8s-0.9,1.3-1,2.4h5.9c0-1-0.3-1.7-0.8-2.3
		S183.1,632.8,182.2,632.8z"/>
</g>
<g>
	<rect x="576" y="621" fill="none" width="234" height="36"/>
	<path fill="#FFFFFF" d="M641.5,648.4l-1.3-2.6H640c-0.9,1.1-1.9,1.9-2.8,2.4s-2.2,0.6-3.7,0.6c-1.9,0-3.4-0.6-4.4-1.7
		s-1.6-2.7-1.6-4.7c0-2.1,0.7-3.7,2.2-4.7s3.6-1.6,6.4-1.8l3.3-0.1v-0.3c0-1.6-0.8-2.5-2.4-2.5c-1.5,0-3.3,0.5-5.5,1.5l-2-4.5
		c2.3-1.2,5.3-1.8,8.8-1.8c2.6,0,4.5,0.6,5.9,1.9s2.1,3,2.1,5.3v13.1H641.5z M636.4,643.9c0.8,0,1.5-0.3,2.1-0.8s0.9-1.2,0.9-2.1
		v-1.5l-1.6,0.1c-2.3,0.1-3.4,0.9-3.4,2.5C634.4,643.3,635.1,643.9,636.4,643.9z"/>
	<path fill="#FFFFFF" d="M662.9,648.7c-1,0-1.9-0.2-2.7-0.5s-1.6-0.9-2.4-1.8h-0.3c0.2,1.4,0.3,2.3,0.3,2.6v8h-6.9v-28.6h5.6l1,2.5
		h0.3c1.3-1.9,3-2.9,5.3-2.9c2.2,0,3.9,0.9,5.2,2.7s1.9,4.3,1.9,7.5c0,3.2-0.7,5.7-2,7.6S665.1,648.7,662.9,648.7z M660.6,633.5
		c-1,0-1.7,0.4-2.1,1.1s-0.6,1.8-0.7,3.2v0.5c0,1.7,0.2,2.9,0.7,3.7s1.2,1.1,2.2,1.1c0.9,0,1.5-0.4,1.9-1.1s0.6-2,0.6-3.8
		c0-1.7-0.2-2.9-0.6-3.7S661.5,633.5,660.6,633.5z"/>
	<path fill="#FFFFFF" d="M687,648.4l-1.3-2.6h-0.1c-0.9,1.1-1.9,1.9-2.8,2.4s-2.2,0.6-3.7,0.6c-1.9,0-3.4-0.6-4.4-1.7
		s-1.6-2.7-1.6-4.7c0-2.1,0.7-3.7,2.2-4.7s3.6-1.6,6.4-1.8l3.3-0.1v-0.3c0-1.6-0.8-2.5-2.4-2.5c-1.5,0-3.3,0.5-5.5,1.5l-2-4.5
		c2.3-1.2,5.3-1.8,8.8-1.8c2.6,0,4.5,0.6,5.9,1.9s2.1,3,2.1,5.3v13.1H687z M682,643.9c0.8,0,1.5-0.3,2.1-0.8s0.9-1.2,0.9-2.1v-1.5
		l-1.6,0.1c-2.3,0.1-3.4,0.9-3.4,2.5C680,643.3,680.7,643.9,682,643.9z"/>
	<path fill="#FFFFFF" d="M705.6,648.7c-3.3,0-5.7-0.9-7.4-2.6s-2.5-4.3-2.5-7.6c0-3.3,0.9-5.9,2.7-7.7s4.4-2.7,7.8-2.7
		c2.3,0,4.5,0.5,6.5,1.5l-2,5.1c-0.8-0.4-1.6-0.7-2.3-0.9s-1.4-0.3-2.2-0.3c-1.1,0-2,0.4-2.6,1.3s-0.9,2.1-0.9,3.7
		c0,3.2,1.2,4.8,3.5,4.8c2,0,3.9-0.6,5.8-1.8v5.5C710.2,648.1,708,648.7,705.6,648.7z"/>
	<path fill="#FFFFFF" d="M728.4,648.4v-10.9c0-2.7-0.8-4-2.4-4c-1.1,0-2,0.5-2.5,1.4s-0.8,2.5-0.8,4.7v8.8h-6.9V621h6.9v3.9
		c0,1.8-0.1,3.8-0.3,6h0.3c0.7-1,1.4-1.8,2.3-2.2s2-0.6,3.1-0.6c2.2,0,4,0.6,5.2,1.9s1.9,3.1,1.9,5.4v13H728.4z"/>
	<path fill="#FFFFFF" d="M749.6,648.7c-3.3,0-5.9-0.9-7.7-2.6s-2.8-4.3-2.8-7.5c0-3.4,0.8-5.9,2.5-7.7s4.1-2.7,7.3-2.7
		c3,0,5.3,0.8,7,2.3s2.5,3.8,2.5,6.8v3.1h-12.3c0,1.1,0.5,2,1.2,2.6s1.8,0.9,3.1,0.9c1.2,0,2.3-0.1,3.3-0.3s2.1-0.6,3.3-1.2v4.9
		c-1.1,0.6-2.2,0.9-3.3,1.1S751.2,648.7,749.6,648.7z M749.2,632.8c-0.8,0-1.5,0.3-2,0.8s-0.9,1.3-1,2.4h5.9c0-1-0.3-1.7-0.8-2.3
		S750.1,632.8,749.2,632.8z"/>
</g>
<g>
	<rect x="675" y="207" fill="none" width="144" height="36"/>
	<path fill="#ED1E79" d="M718.3,234.7c-3.3,0-5.9-0.9-7.7-2.6s-2.8-4.3-2.8-7.5c0-3.4,0.8-5.9,2.5-7.7s4.1-2.7,7.3-2.7
		c3,0,5.3,0.8,7,2.3s2.5,3.8,2.5,6.8v3.1h-12.3c0,1.1,0.5,2,1.2,2.6s1.8,0.9,3.1,0.9c1.2,0,2.3-0.1,3.3-0.3s2.1-0.6,3.3-1.2v4.9
		c-1.1,0.6-2.2,0.9-3.3,1.1S719.9,234.7,718.3,234.7z M717.9,218.8c-0.8,0-1.5,0.3-2,0.8s-0.9,1.3-1,2.4h5.9c0-1-0.3-1.7-0.8-2.3
		S718.8,218.8,717.9,218.8z"/>
	<path fill="#ED1E79" d="M740.7,229.3c0.9,0,2-0.2,3.3-0.7v5c-0.9,0.4-1.8,0.7-2.6,0.9s-1.8,0.3-2.9,0.3c-2.3,0-4-0.6-5-1.7
		s-1.5-2.9-1.5-5.2v-8.2h-2.4v-2.8l3.1-2.2l1.8-4.2h4.5v4h4.9v5.2h-4.9v7.8C738.8,228.6,739.5,229.3,740.7,229.3z"/>
	<path fill="#ED1E79" d="M756.6,234.7c-3.3,0-5.7-0.9-7.4-2.6s-2.5-4.3-2.5-7.6c0-3.3,0.9-5.9,2.7-7.7s4.4-2.7,7.8-2.7
		c2.3,0,4.5,0.5,6.5,1.5l-2,5.1c-0.8-0.4-1.6-0.7-2.3-0.9s-1.4-0.3-2.2-0.3c-1.1,0-2,0.4-2.6,1.3s-0.9,2.1-0.9,3.7
		c0,3.2,1.2,4.8,3.5,4.8c2,0,3.9-0.6,5.8-1.8v5.5C761.2,234.1,759.1,234.7,756.6,234.7z"/>
	<path fill="#ED1E79" d="M773.1,234.7c-1.4,0-2.7-0.4-3.7-1.2s-1.9-2-2.5-3.6s-0.9-3.4-0.9-5.5c0-3.2,0.7-5.8,2-7.6s3.1-2.7,5.4-2.7
		c1.1,0,2.1,0.2,2.9,0.7s1.6,1.2,2.3,2.3h0.1c-0.2-1.6-0.3-3.1-0.3-4.7V207h6.9v27.4h-5.2l-1.5-2.5h-0.3
		C777.2,233.8,775.4,234.7,773.1,234.7z M775.9,229.3c1.1,0,1.9-0.3,2.3-1s0.7-1.8,0.7-3.2v-0.5c0-1.8-0.3-3-0.8-3.8
		s-1.3-1.1-2.4-1.1c-0.9,0-1.6,0.4-2.1,1.3s-0.7,2.1-0.7,3.6c0,1.5,0.3,2.7,0.8,3.5S775,229.3,775.9,229.3z"/>
</g>
<g>
	<rect x="252" y="567" fill="none" width="144" height="54"/>
	<path fill="#FFFFFF" d="M289.6,585.2l-0.9-1.8h-0.1c-0.6,0.8-1.2,1.3-1.9,1.6s-1.5,0.4-2.5,0.4c-1.3,0-2.2-0.4-3-1.1
		s-1.1-1.8-1.1-3.2c0-1.4,0.5-2.5,1.5-3.2s2.4-1.1,4.3-1.2l2.2-0.1v-0.2c0-1.1-0.5-1.6-1.6-1.6c-1,0-2.2,0.3-3.7,1l-1.3-3
		c1.5-0.8,3.5-1.2,5.9-1.2c1.7,0,3,0.4,4,1.3s1.4,2,1.4,3.5v8.7H289.6z M286.2,582.2c0.6,0,1-0.2,1.4-0.5s0.6-0.8,0.6-1.4v-1l-1.1,0
		c-1.5,0.1-2.3,0.6-2.3,1.7C284.9,581.8,285.4,582.2,286.2,582.2z"/>
	<path fill="#FFFFFF" d="M303.9,585.5c-0.7,0-1.3-0.1-1.8-0.3s-1.1-0.6-1.6-1.2h-0.2c0.1,0.9,0.2,1.5,0.2,1.7v5.3h-4.6v-19h3.7
		l0.6,1.7h0.2c0.9-1.3,2-1.9,3.5-1.9c1.5,0,2.6,0.6,3.5,1.8s1.3,2.9,1.3,5c0,2.1-0.4,3.8-1.3,5.1S305.4,585.5,303.9,585.5z
		 M302.4,575.3c-0.7,0-1.1,0.2-1.4,0.7s-0.4,1.2-0.4,2.1v0.4c0,1.1,0.2,2,0.5,2.5s0.8,0.8,1.4,0.8c0.6,0,1-0.3,1.3-0.8
		s0.4-1.3,0.4-2.5c0-1.1-0.1-2-0.4-2.5S303,575.3,302.4,575.3z"/>
	<path fill="#FFFFFF" d="M320,585.2l-0.9-1.8h-0.1c-0.6,0.8-1.2,1.3-1.9,1.6s-1.5,0.4-2.5,0.4c-1.3,0-2.2-0.4-3-1.1
		s-1.1-1.8-1.1-3.2c0-1.4,0.5-2.5,1.5-3.2s2.4-1.1,4.3-1.2l2.2-0.1v-0.2c0-1.1-0.5-1.6-1.6-1.6c-1,0-2.2,0.3-3.7,1l-1.3-3
		c1.5-0.8,3.5-1.2,5.9-1.2c1.7,0,3,0.4,4,1.3s1.4,2,1.4,3.5v8.7H320z M316.6,582.2c0.6,0,1-0.2,1.4-0.5s0.6-0.8,0.6-1.4v-1l-1.1,0
		c-1.5,0.1-2.3,0.6-2.3,1.7C315.3,581.8,315.8,582.2,316.6,582.2z"/>
	<path fill="#FFFFFF" d="M332.4,585.5c-2.2,0-3.8-0.6-4.9-1.8s-1.7-2.9-1.7-5.1c0-2.2,0.6-3.9,1.8-5.1s2.9-1.8,5.2-1.8
		c1.5,0,3,0.3,4.3,1l-1.3,3.4c-0.6-0.2-1.1-0.4-1.5-0.6s-1-0.2-1.5-0.2c-0.7,0-1.3,0.3-1.7,0.9s-0.6,1.4-0.6,2.4
		c0,2.1,0.8,3.2,2.4,3.2c1.3,0,2.6-0.4,3.9-1.2v3.6C335.4,585.1,334,585.5,332.4,585.5z"/>
	<path fill="#FFFFFF" d="M347.6,585.2V578c0-1.8-0.5-2.7-1.6-2.7c-0.8,0-1.3,0.3-1.7,0.9s-0.5,1.7-0.5,3.1v5.8h-4.6V567h4.6v2.6
		c0,1.2-0.1,2.5-0.2,4h0.2c0.4-0.7,1-1.2,1.6-1.5s1.3-0.4,2.1-0.4c1.5,0,2.6,0.4,3.5,1.3s1.2,2.1,1.2,3.6v8.6H347.6z"/>
	<path fill="#FFFFFF" d="M361.8,585.5c-2.2,0-3.9-0.6-5.2-1.8s-1.8-2.8-1.8-5c0-2.2,0.6-4,1.7-5.2s2.8-1.8,4.9-1.8
		c2,0,3.5,0.5,4.6,1.6s1.6,2.5,1.6,4.5v2h-8.2c0,0.7,0.3,1.3,0.8,1.7s1.2,0.6,2.1,0.6c0.8,0,1.5-0.1,2.2-0.2s1.4-0.4,2.2-0.8v3.3
		c-0.7,0.4-1.5,0.6-2.2,0.8S362.8,585.5,361.8,585.5z M361.5,574.8c-0.5,0-1,0.2-1.4,0.5s-0.6,0.9-0.6,1.6h3.9
		c0-0.6-0.2-1.2-0.5-1.5S362.1,574.8,361.5,574.8z"/>
	<path fill="#FFFFFF" d="M269.9,614.3c-0.9,0-1.8-0.3-2.5-0.8s-1.3-1.3-1.6-2.4s-0.6-2.3-0.6-3.7c0-2.2,0.4-3.8,1.3-5.1
		s2.1-1.8,3.6-1.8c0.7,0,1.4,0.1,2,0.4s1.1,0.8,1.5,1.5h0.1c-0.1-1-0.2-2.1-0.2-3.1v-3.6h4.6V614h-3.5l-1-1.7h-0.2
		C272.6,613.6,271.4,614.3,269.9,614.3z M271.8,610.7c0.7,0,1.3-0.2,1.6-0.7s0.5-1.2,0.5-2.1v-0.4c0-1.2-0.2-2-0.5-2.5
		s-0.9-0.7-1.6-0.7c-0.6,0-1.1,0.3-1.4,0.8s-0.5,1.4-0.5,2.4c0,1,0.2,1.8,0.5,2.4S271.1,610.7,271.8,610.7z"/>
	<path fill="#FFFFFF" d="M281.1,597.5c0-0.7,0.2-1.2,0.6-1.5s1-0.5,1.9-0.5s1.5,0.2,1.9,0.5s0.6,0.9,0.6,1.5c0,1.3-0.8,2-2.4,2
		C281.9,599.5,281.1,598.8,281.1,597.5z M285.8,614h-4.6v-13.3h4.6V614z"/>
	<path fill="#FFFFFF" d="M299.2,610c0,1.4-0.5,2.5-1.5,3.2s-2.4,1.1-4.2,1.1c-1,0-1.8-0.1-2.6-0.2s-1.5-0.3-2.2-0.6v-3.7
		c0.7,0.3,1.5,0.6,2.3,0.8s1.6,0.3,2.3,0.3c1,0,1.5-0.2,1.5-0.7c0-0.2-0.1-0.4-0.4-0.6s-1.1-0.5-2.4-1.1c-1.2-0.5-2.1-1.1-2.6-1.7
		s-0.7-1.4-0.7-2.4c0-1.2,0.5-2.2,1.4-2.9s2.3-1,4-1c0.9,0,1.7,0.1,2.5,0.3s1.6,0.5,2.4,0.8l-1.2,3c-0.6-0.3-1.3-0.5-1.9-0.7
		s-1.2-0.3-1.7-0.3c-0.8,0-1.1,0.2-1.1,0.6c0,0.2,0.1,0.4,0.4,0.6s1,0.5,2.3,1c0.9,0.4,1.6,0.8,2.1,1.1s0.8,0.8,1,1.3
		S299.2,609.3,299.2,610z"/>
	<path fill="#FFFFFF" d="M307.8,614.3c-2.2,0-3.8-0.6-4.9-1.8s-1.7-2.9-1.7-5.1c0-2.2,0.6-3.9,1.8-5.1s2.9-1.8,5.2-1.8
		c1.5,0,3,0.3,4.3,1l-1.3,3.4c-0.6-0.2-1.1-0.4-1.5-0.6s-1-0.2-1.5-0.2c-0.7,0-1.3,0.3-1.7,0.9s-0.6,1.4-0.6,2.4
		c0,2.1,0.8,3.2,2.4,3.2c1.3,0,2.6-0.4,3.9-1.2v3.6C310.9,613.9,309.5,614.3,307.8,614.3z"/>
	<path fill="#FFFFFF" d="M327.4,607.4c0,2.2-0.6,3.9-1.8,5.1s-2.8,1.8-4.9,1.8c-2,0-3.6-0.6-4.8-1.9s-1.8-2.9-1.8-5
		c0-2.2,0.6-3.8,1.8-5s2.8-1.8,4.9-1.8c1.3,0,2.5,0.3,3.5,0.8s1.8,1.3,2.3,2.4S327.4,606,327.4,607.4z M318.8,607.4
		c0,1.1,0.2,2,0.5,2.6s0.8,0.9,1.5,0.9c0.7,0,1.2-0.3,1.5-0.9s0.4-1.5,0.4-2.6c0-1.1-0.1-2-0.4-2.6s-0.8-0.9-1.5-0.9
		c-0.7,0-1.2,0.3-1.5,0.9S318.8,606.2,318.8,607.4z"/>
	<path fill="#FFFFFF" d="M333.5,614l-5.1-13.3h4.8l2.3,7.9c0,0,0,0.1,0,0.2s0,0.2,0.1,0.3s0,0.3,0.1,0.4s0,0.3,0,0.4h0.1
		c0-0.4,0.1-0.8,0.2-1.3l2.4-7.9h4.8L338,614H333.5z"/>
	<path fill="#FFFFFF" d="M351.1,614.3c-2.2,0-3.9-0.6-5.2-1.8s-1.8-2.8-1.8-5c0-2.2,0.6-4,1.7-5.2s2.8-1.8,4.9-1.8
		c2,0,3.5,0.5,4.6,1.6s1.6,2.5,1.6,4.5v2h-8.2c0,0.7,0.3,1.3,0.8,1.7s1.2,0.6,2.1,0.6c0.8,0,1.5-0.1,2.2-0.2s1.4-0.4,2.2-0.8v3.3
		c-0.7,0.4-1.5,0.6-2.2,0.8S352.2,614.3,351.1,614.3z M350.8,603.6c-0.5,0-1,0.2-1.4,0.5s-0.6,0.9-0.6,1.6h3.9
		c0-0.6-0.2-1.2-0.5-1.5S351.4,603.6,350.8,603.6z"/>
	<path fill="#FFFFFF" d="M367.5,600.5c0.4,0,0.8,0,1.1,0.1l0.3,0l-0.4,4.3c-0.4-0.1-0.9-0.1-1.6-0.1c-1,0-1.7,0.2-2.2,0.7
		s-0.7,1.1-0.7,2v6.5h-4.6v-13.3h3.4l0.7,2.1h0.2c0.4-0.7,0.9-1.3,1.6-1.7S366.8,600.5,367.5,600.5z"/>
	<path fill="#FFFFFF" d="M369.2,600.8h4.8l2.3,7.6c0.1,0.4,0.2,0.9,0.2,1.4h0.1c0.1-0.5,0.2-1,0.3-1.4l2.3-7.6h4.7l-5.3,14.1
		c-0.7,1.8-1.5,3.1-2.5,3.8s-2.3,1.1-3.8,1.1c-0.6,0-1.2-0.1-1.9-0.2V616c0.4,0.1,0.9,0.1,1.4,0.1c0.4,0,0.8-0.1,1.1-0.2
		s0.6-0.4,0.8-0.7s0.5-0.8,0.7-1.4L369.2,600.8z"/>
</g>
<g>
	<rect x="819" y="567" fill="none" width="144" height="54"/>
	<path fill="#FFFFFF" d="M856.6,585.2l-0.9-1.8h-0.1c-0.6,0.8-1.2,1.3-1.9,1.6s-1.5,0.4-2.5,0.4c-1.3,0-2.2-0.4-3-1.1
		s-1.1-1.8-1.1-3.2c0-1.4,0.5-2.5,1.5-3.2s2.4-1.1,4.3-1.2l2.2-0.1v-0.2c0-1.1-0.5-1.6-1.6-1.6c-1,0-2.2,0.3-3.7,1l-1.3-3
		c1.5-0.8,3.5-1.2,5.9-1.2c1.7,0,3,0.4,4,1.3s1.4,2,1.4,3.5v8.7H856.6z M853.2,582.2c0.6,0,1-0.2,1.4-0.5s0.6-0.8,0.6-1.4v-1l-1.1,0
		c-1.5,0.1-2.3,0.6-2.3,1.7C851.9,581.8,852.4,582.2,853.2,582.2z"/>
	<path fill="#FFFFFF" d="M870.9,585.5c-0.7,0-1.3-0.1-1.8-0.3s-1.1-0.6-1.6-1.2h-0.2c0.1,0.9,0.2,1.5,0.2,1.7v5.3h-4.6v-19h3.7
		l0.6,1.7h0.2c0.9-1.3,2-1.9,3.5-1.9c1.5,0,2.6,0.6,3.5,1.8s1.3,2.9,1.3,5c0,2.1-0.4,3.8-1.3,5.1S872.4,585.5,870.9,585.5z
		 M869.4,575.3c-0.7,0-1.1,0.2-1.4,0.7s-0.4,1.2-0.4,2.1v0.4c0,1.1,0.2,2,0.5,2.5s0.8,0.8,1.4,0.8c0.6,0,1-0.3,1.3-0.8
		s0.4-1.3,0.4-2.5c0-1.1-0.1-2-0.4-2.5S870,575.3,869.4,575.3z"/>
	<path fill="#FFFFFF" d="M887,585.2l-0.9-1.8h-0.1c-0.6,0.8-1.2,1.3-1.9,1.6s-1.5,0.4-2.5,0.4c-1.3,0-2.2-0.4-3-1.1
		s-1.1-1.8-1.1-3.2c0-1.4,0.5-2.5,1.5-3.2s2.4-1.1,4.3-1.2l2.2-0.1v-0.2c0-1.1-0.5-1.6-1.6-1.6c-1,0-2.2,0.3-3.7,1l-1.3-3
		c1.5-0.8,3.5-1.2,5.9-1.2c1.7,0,3,0.4,4,1.3s1.4,2,1.4,3.5v8.7H887z M883.6,582.2c0.6,0,1-0.2,1.4-0.5s0.6-0.8,0.6-1.4v-1l-1.1,0
		c-1.5,0.1-2.3,0.6-2.3,1.7C882.3,581.8,882.8,582.2,883.6,582.2z"/>
	<path fill="#FFFFFF" d="M899.4,585.5c-2.2,0-3.8-0.6-4.9-1.8s-1.7-2.9-1.7-5.1c0-2.2,0.6-3.9,1.8-5.1s2.9-1.8,5.2-1.8
		c1.5,0,3,0.3,4.3,1l-1.3,3.4c-0.6-0.2-1.1-0.4-1.5-0.6s-1-0.2-1.5-0.2c-0.7,0-1.3,0.3-1.7,0.9s-0.6,1.4-0.6,2.4
		c0,2.1,0.8,3.2,2.4,3.2c1.3,0,2.6-0.4,3.9-1.2v3.6C902.4,585.1,901,585.5,899.4,585.5z"/>
	<path fill="#FFFFFF" d="M914.6,585.2V578c0-1.8-0.5-2.7-1.6-2.7c-0.8,0-1.3,0.3-1.7,0.9s-0.5,1.7-0.5,3.1v5.8h-4.6V567h4.6v2.6
		c0,1.2-0.1,2.5-0.2,4h0.2c0.4-0.7,1-1.2,1.6-1.5s1.3-0.4,2.1-0.4c1.5,0,2.6,0.4,3.5,1.3s1.2,2.1,1.2,3.6v8.6H914.6z"/>
	<path fill="#FFFFFF" d="M928.8,585.5c-2.2,0-3.9-0.6-5.2-1.8s-1.8-2.8-1.8-5c0-2.2,0.6-4,1.7-5.2s2.8-1.8,4.9-1.8
		c2,0,3.5,0.5,4.6,1.6s1.6,2.5,1.6,4.5v2h-8.2c0,0.7,0.3,1.3,0.8,1.7s1.2,0.6,2.1,0.6c0.8,0,1.5-0.1,2.2-0.2s1.4-0.4,2.2-0.8v3.3
		c-0.7,0.4-1.5,0.6-2.2,0.8S929.8,585.5,928.8,585.5z M928.5,574.8c-0.5,0-1,0.2-1.4,0.5s-0.6,0.9-0.6,1.6h3.9
		c0-0.6-0.2-1.2-0.5-1.5S929.1,574.8,928.5,574.8z"/>
	<path fill="#FFFFFF" d="M836.9,614.3c-0.9,0-1.8-0.3-2.5-0.8s-1.3-1.3-1.6-2.4s-0.6-2.3-0.6-3.7c0-2.2,0.4-3.8,1.3-5.1
		s2.1-1.8,3.6-1.8c0.7,0,1.4,0.1,2,0.4s1.1,0.8,1.5,1.5h0.1c-0.1-1-0.2-2.1-0.2-3.1v-3.6h4.6V614h-3.5l-1-1.7h-0.2
		C839.6,613.6,838.4,614.3,836.9,614.3z M838.8,610.7c0.7,0,1.3-0.2,1.6-0.7s0.5-1.2,0.5-2.1v-0.4c0-1.2-0.2-2-0.5-2.5
		s-0.9-0.7-1.6-0.7c-0.6,0-1.1,0.3-1.4,0.8s-0.5,1.4-0.5,2.4c0,1,0.2,1.8,0.5,2.4S838.1,610.7,838.8,610.7z"/>
	<path fill="#FFFFFF" d="M848.1,597.5c0-0.7,0.2-1.2,0.6-1.5s1-0.5,1.9-0.5s1.5,0.2,1.9,0.5s0.6,0.9,0.6,1.5c0,1.3-0.8,2-2.4,2
		C848.9,599.5,848.1,598.8,848.1,597.5z M852.8,614h-4.6v-13.3h4.6V614z"/>
	<path fill="#FFFFFF" d="M866.2,610c0,1.4-0.5,2.5-1.5,3.2s-2.4,1.1-4.2,1.1c-1,0-1.8-0.1-2.6-0.2s-1.5-0.3-2.2-0.6v-3.7
		c0.7,0.3,1.5,0.6,2.3,0.8s1.6,0.3,2.3,0.3c1,0,1.5-0.2,1.5-0.7c0-0.2-0.1-0.4-0.4-0.6s-1.1-0.5-2.4-1.1c-1.2-0.5-2.1-1.1-2.6-1.7
		s-0.7-1.4-0.7-2.4c0-1.2,0.5-2.2,1.4-2.9s2.3-1,4-1c0.9,0,1.7,0.1,2.5,0.3s1.6,0.5,2.4,0.8l-1.2,3c-0.6-0.3-1.3-0.5-1.9-0.7
		s-1.2-0.3-1.7-0.3c-0.8,0-1.1,0.2-1.1,0.6c0,0.2,0.1,0.4,0.4,0.6s1,0.5,2.3,1c0.9,0.4,1.6,0.8,2.1,1.1s0.8,0.8,1,1.3
		S866.2,609.3,866.2,610z"/>
	<path fill="#FFFFFF" d="M874.8,614.3c-2.2,0-3.8-0.6-4.9-1.8s-1.7-2.9-1.7-5.1c0-2.2,0.6-3.9,1.8-5.1s2.9-1.8,5.2-1.8
		c1.5,0,3,0.3,4.3,1l-1.3,3.4c-0.6-0.2-1.1-0.4-1.5-0.6s-1-0.2-1.5-0.2c-0.7,0-1.3,0.3-1.7,0.9s-0.6,1.4-0.6,2.4
		c0,2.1,0.8,3.2,2.4,3.2c1.3,0,2.6-0.4,3.9-1.2v3.6C877.9,613.9,876.5,614.3,874.8,614.3z"/>
	<path fill="#FFFFFF" d="M894.4,607.4c0,2.2-0.6,3.9-1.8,5.1s-2.8,1.8-4.9,1.8c-2,0-3.6-0.6-4.8-1.9s-1.8-2.9-1.8-5
		c0-2.2,0.6-3.8,1.8-5s2.8-1.8,4.9-1.8c1.3,0,2.5,0.3,3.5,0.8s1.8,1.3,2.3,2.4S894.4,606,894.4,607.4z M885.8,607.4
		c0,1.1,0.2,2,0.5,2.6s0.8,0.9,1.5,0.9c0.7,0,1.2-0.3,1.5-0.9s0.4-1.5,0.4-2.6c0-1.1-0.1-2-0.4-2.6s-0.8-0.9-1.5-0.9
		c-0.7,0-1.2,0.3-1.5,0.9S885.8,606.2,885.8,607.4z"/>
	<path fill="#FFFFFF" d="M900.5,614l-5.1-13.3h4.8l2.3,7.9c0,0,0,0.1,0,0.2s0,0.2,0.1,0.3s0,0.3,0.1,0.4s0,0.3,0,0.4h0.1
		c0-0.4,0.1-0.8,0.2-1.3l2.4-7.9h4.8L905,614H900.5z"/>
	<path fill="#FFFFFF" d="M918.1,614.3c-2.2,0-3.9-0.6-5.2-1.8s-1.8-2.8-1.8-5c0-2.2,0.6-4,1.7-5.2s2.8-1.8,4.9-1.8
		c2,0,3.5,0.5,4.6,1.6s1.6,2.5,1.6,4.5v2h-8.2c0,0.7,0.3,1.3,0.8,1.7s1.2,0.6,2.1,0.6c0.8,0,1.5-0.1,2.2-0.2s1.4-0.4,2.2-0.8v3.3
		c-0.7,0.4-1.5,0.6-2.2,0.8S919.2,614.3,918.1,614.3z M917.8,603.6c-0.5,0-1,0.2-1.4,0.5s-0.6,0.9-0.6,1.6h3.9
		c0-0.6-0.2-1.2-0.5-1.5S918.4,603.6,917.8,603.6z"/>
	<path fill="#FFFFFF" d="M934.5,600.5c0.4,0,0.8,0,1.1,0.1l0.3,0l-0.4,4.3c-0.4-0.1-0.9-0.1-1.6-0.1c-1,0-1.7,0.2-2.2,0.7
		s-0.7,1.1-0.7,2v6.5h-4.6v-13.3h3.4l0.7,2.1h0.2c0.4-0.7,0.9-1.3,1.6-1.7S933.8,600.5,934.5,600.5z"/>
	<path fill="#FFFFFF" d="M936.2,600.8h4.8l2.3,7.6c0.1,0.4,0.2,0.9,0.2,1.4h0.1c0.1-0.5,0.2-1,0.3-1.4l2.3-7.6h4.7l-5.3,14.1
		c-0.7,1.8-1.5,3.1-2.5,3.8s-2.3,1.1-3.8,1.1c-0.6,0-1.2-0.1-1.9-0.2V616c0.4,0.1,0.9,0.1,1.4,0.1c0.4,0,0.8-0.1,1.1-0.2
		s0.6-0.4,0.8-0.7s0.5-0.8,0.7-1.4L936.2,600.8z"/>
</g>
<g>
</g>
<g>
</g>
<g>
</g>
<g>
</g>
<g>
</g>
<g>
</g>
<g>
</g>
<g>
</g>
<g>
</g>
<g>
</g>
<g>
</g>
<g>
</g>
<g>
</g>
<g>
</g>
<g>
</g>
</svg>
