<?xml version="1.0" encoding="utf-8"?>
<!-- Generator: Adobe Illustrator 17.1.0, SVG Export Plug-In . SVG Version: 6.00 Build 0)  -->
<!DOCTYPE svg PUBLIC "-//W3C//DTD SVG 1.1//EN" "http://www.w3.org/Graphics/SVG/1.1/DTD/svg11.dtd">
<svg version="1.1" id="Layer_1" xmlns="http://www.w3.org/2000/svg" xmlns:xlink="http://www.w3.org/1999/xlink" x="0px" y="0px"
	 viewBox="0 0 828 171" enable-background="new 0 0 828 171" xml:space="preserve">
<rect x="9" y="9" fill="#76A0FF" width="153" height="153"/>
<circle fill="#ED1E79" cx="747" cy="90" r="72"/>
<polyline fill="#76A0FF" points="675,72 657,81 657,63 "/>
<line fill="none" stroke="#76A0FF" stroke-width="2" stroke-miterlimit="10" x1="171" y1="72" x2="657" y2="72"/>
<circle fill="#76A0FF" cx="171" cy="72" r="9"/>
<g>
	<rect x="9" y="72" fill="none" width="153" height="36"/>
	<path fill="#FFFFFF" d="M66.5,99.4l-1.3-2.6H65c-0.9,1.1-1.9,1.9-2.8,2.4s-2.2,0.6-3.7,0.6c-1.9,0-3.4-0.6-4.4-1.7
		s-1.6-2.7-1.6-4.7c0-2.1,0.7-3.7,2.2-4.7s3.6-1.6,6.4-1.7l3.3-0.1v-0.3c0-1.6-0.8-2.5-2.4-2.5c-1.5,0-3.3,0.5-5.5,1.5l-2-4.5
		c2.3-1.2,5.3-1.8,8.8-1.8c2.6,0,4.5,0.6,5.9,1.9s2.1,3,2.1,5.3v13.1H66.5z M61.4,94.9c0.8,0,1.5-0.3,2.1-0.8s0.9-1.2,0.9-2.1v-1.5
		l-1.6,0.1c-2.3,0.1-3.4,0.9-3.4,2.5C59.4,94.3,60.1,94.9,61.4,94.9z"/>
	<path fill="#FFFFFF" d="M87.9,99.7c-1,0-1.9-0.2-2.7-0.5s-1.6-0.9-2.4-1.8h-0.3c0.2,1.4,0.3,2.3,0.3,2.6v8h-6.9V79.4h5.6l1,2.5h0.3
		c1.3-1.9,3-2.9,5.3-2.9c2.2,0,3.9,0.9,5.2,2.7s1.9,4.3,1.9,7.5c0,3.2-0.7,5.7-2,7.6S90.1,99.7,87.9,99.7z M85.6,84.5
		c-1,0-1.7,0.4-2.1,1.1s-0.6,1.8-0.7,3.2v0.5c0,1.7,0.2,2.9,0.7,3.7s1.2,1.1,2.2,1.1c0.9,0,1.5-0.4,1.9-1.1s0.6-2,0.6-3.8
		c0-1.7-0.2-2.9-0.6-3.7S86.5,84.5,85.6,84.5z"/>
	<path fill="#FFFFFF" d="M111,99.7c-1,0-1.9-0.2-2.7-0.5s-1.6-0.9-2.4-1.8h-0.3c0.2,1.4,0.3,2.3,0.3,2.6v8h-6.9V79.4h5.6l1,2.5h0.3
		c1.3-1.9,3-2.9,5.3-2.9c2.2,0,3.9,0.9,5.2,2.7s1.9,4.3,1.9,7.5c0,3.2-0.7,5.7-2,7.6S113.3,99.7,111,99.7z M108.7,84.5
		c-1,0-1.7,0.4-2.1,1.1s-0.6,1.8-0.7,3.2v0.5c0,1.7,0.2,2.9,0.7,3.7s1.2,1.1,2.2,1.1c0.9,0,1.5-0.4,1.9-1.1s0.6-2,0.6-3.8
		c0-1.7-0.2-2.9-0.6-3.7S109.7,84.5,108.7,84.5z"/>
</g>
<g>
	<rect x="675" y="72" fill="none" width="144" height="36"/>
	<path fill="#FCFCFC" d="M718.3,99.7c-3.3,0-5.9-0.9-7.7-2.6s-2.8-4.3-2.8-7.5c0-3.4,0.8-5.9,2.5-7.7s4.1-2.7,7.3-2.7
		c3,0,5.3,0.8,7,2.3s2.5,3.8,2.5,6.8v3.1h-12.3c0,1.1,0.5,2,1.2,2.6s1.8,0.9,3.1,0.9c1.2,0,2.3-0.1,3.3-0.3s2.1-0.6,3.3-1.2v4.9
		c-1.1,0.6-2.2,0.9-3.3,1.1S719.9,99.7,718.3,99.7z M717.9,83.8c-0.8,0-1.5,0.3-2,0.8s-0.9,1.3-1,2.4h5.9c0-1-0.3-1.7-0.8-2.3
		S718.8,83.8,717.9,83.8z"/>
	<path fill="#FCFCFC" d="M740.7,94.3c0.9,0,2-0.2,3.3-0.7v5c-0.9,0.4-1.8,0.7-2.6,0.9s-1.8,0.3-2.9,0.3c-2.3,0-4-0.6-5-1.7
		s-1.5-2.9-1.5-5.2v-8.2h-2.4v-2.8l3.1-2.2l1.8-4.2h4.5v4h4.9v5.2h-4.9v7.8C738.8,93.6,739.5,94.3,740.7,94.3z"/>
	<path fill="#FCFCFC" d="M756.6,99.7c-3.3,0-5.7-0.9-7.4-2.6s-2.5-4.3-2.5-7.6c0-3.3,0.9-5.9,2.7-7.7s4.4-2.7,7.8-2.7
		c2.3,0,4.5,0.5,6.5,1.5l-2,5.1c-0.8-0.4-1.6-0.7-2.3-0.9s-1.4-0.3-2.2-0.3c-1.1,0-2,0.4-2.6,1.3s-0.9,2.1-0.9,3.7
		c0,3.2,1.2,4.8,3.5,4.8c2,0,3.9-0.6,5.8-1.8V98C761.2,99.1,759.1,99.7,756.6,99.7z"/>
	<path fill="#FCFCFC" d="M773.1,99.7c-1.4,0-2.7-0.4-3.7-1.2s-1.9-2-2.5-3.6s-0.9-3.4-0.9-5.5c0-3.2,0.7-5.8,2-7.6s3.1-2.7,5.4-2.7
		c1.1,0,2.1,0.2,2.9,0.7s1.6,1.2,2.3,2.3h0.1c-0.2-1.6-0.3-3.1-0.3-4.7V72h6.9v27.4h-5.2l-1.5-2.5h-0.3
		C777.2,98.8,775.4,99.7,773.1,99.7z M775.9,94.3c1.1,0,1.9-0.3,2.3-1s0.7-1.8,0.7-3.2v-0.5c0-1.8-0.3-3-0.8-3.8s-1.3-1.1-2.4-1.1
		c-0.9,0-1.6,0.4-2.1,1.3S773,88,773,89.5c0,1.5,0.3,2.7,0.8,3.5S775,94.3,775.9,94.3z"/>
</g>
<line fill="none" stroke="#ED1E79" stroke-width="2" stroke-miterlimit="10" x1="171" y1="108" x2="666" y2="108"/>
<circle fill="#ED1E79" cx="666" cy="108" r="9"/>
<g>
	<path fill="#F7F7F7" d="M213.5,46.8h5.1v6.7c-0.8,0.3-1.6,0.5-2.3,0.6c-0.7,0.1-1.5,0.2-2.2,0.2c-1.9,0-3.4-0.6-4.4-1.7
		c-1-1.1-1.5-2.8-1.5-4.9c0-2.1,0.6-3.7,1.8-4.9c1.2-1.2,2.8-1.7,4.9-1.7c1.3,0,2.6,0.3,3.8,0.8l-0.9,2.2c-0.9-0.5-1.9-0.7-2.9-0.7
		c-1.2,0-2.1,0.4-2.8,1.2s-1.1,1.9-1.1,3.2c0,1.4,0.3,2.5,0.9,3.2c0.6,0.7,1.4,1.1,2.5,1.1c0.6,0,1.1-0.1,1.7-0.2v-2.7h-2.4V46.8z"
		/>
	<path fill="#F7F7F7" d="M229.1,54h-7.4V41.2h7.4v2.2h-4.7v2.8h4.4v2.2h-4.4v3.3h4.7V54z"/>
	<path fill="#F7F7F7" d="M236.7,54H234V43.4h-3.5v-2.3h9.7v2.3h-3.5V54z"/>
	<path fill="#F7F7F7" d="M255.7,54H253v-5.7c0-1.4-0.5-2.1-1.6-2.1c-0.8,0-1.3,0.3-1.6,0.8s-0.5,1.3-0.5,2.5V54h-2.7V40.3h2.7v2.8
		c0,0.2,0,0.7-0.1,1.5l-0.1,0.8h0.1c0.6-1,1.5-1.4,2.8-1.4c1.2,0,2,0.3,2.6,0.9s0.9,1.5,0.9,2.7V54z"/>
	<path fill="#F7F7F7" d="M262.6,52c0.5,0,1-0.1,1.7-0.3v2c-0.7,0.3-1.5,0.4-2.5,0.4c-1.1,0-1.9-0.3-2.3-0.8s-0.7-1.4-0.7-2.4v-4.7
		h-1.3v-1.1l1.5-0.9l0.8-2.1h1.7v2.1h2.8v2h-2.8v4.7c0,0.4,0.1,0.7,0.3,0.8S262.2,52,262.6,52z"/>
	<path fill="#F7F7F7" d="M270.4,52c0.5,0,1-0.1,1.7-0.3v2c-0.7,0.3-1.5,0.4-2.5,0.4c-1.1,0-1.9-0.3-2.3-0.8
		c-0.5-0.5-0.7-1.4-0.7-2.4v-4.7h-1.3v-1.1l1.5-0.9l0.8-2.1h1.7v2.1h2.8v2h-2.8v4.7c0,0.4,0.1,0.7,0.3,0.8
		C269.8,51.9,270.1,52,270.4,52z"/>
	<path fill="#F7F7F7" d="M279.5,54.2c-1.2,0-2.1-0.4-2.7-1.3h-0.1c0.1,0.8,0.1,1.3,0.1,1.4v4h-2.7V44.2h2.2l0.4,1.3h0.1
		c0.6-1,1.6-1.5,2.8-1.5c1.2,0,2.1,0.4,2.7,1.3s1,2.1,1,3.7c0,1-0.2,2-0.5,2.7c-0.3,0.8-0.7,1.4-1.3,1.8S280.2,54.2,279.5,54.2z
		 M278.7,46.1c-0.7,0-1.1,0.2-1.5,0.6s-0.5,1.1-0.5,2v0.3c0,1.1,0.2,1.8,0.5,2.3s0.8,0.7,1.5,0.7c1.2,0,1.8-1,1.8-3
		c0-1-0.1-1.7-0.4-2.2S279.3,46.1,278.7,46.1z"/>
	<path fill="#F7F7F7" d="M285.1,45.5c0-0.5,0.1-0.9,0.4-1.1s0.6-0.4,1.2-0.4c0.5,0,0.9,0.1,1.1,0.4c0.3,0.3,0.4,0.6,0.4,1.1
		c0,0.5-0.1,0.8-0.4,1.1c-0.3,0.3-0.6,0.4-1.1,0.4c-0.5,0-0.9-0.1-1.1-0.4S285.1,46,285.1,45.5z M285.1,52.7c0-0.5,0.1-0.9,0.4-1.1
		s0.6-0.4,1.2-0.4c0.5,0,0.9,0.1,1.1,0.4c0.3,0.3,0.4,0.6,0.4,1.1c0,0.5-0.1,0.8-0.4,1.1c-0.3,0.3-0.6,0.4-1.1,0.4
		c-0.5,0-0.9-0.1-1.1-0.4C285.2,53.6,285.1,53.2,285.1,52.7z"/>
	<path fill="#F7F7F7" d="M296.5,41.2L291.8,54h-2.4l4.8-12.8H296.5z"/>
	<path fill="#F7F7F7" d="M304,41.2L299.2,54h-2.4l4.8-12.8H304z"/>
	<path fill="#F7F7F7" d="M311.5,54h-2.7v-7.4l0-1.2l0-1.3c-0.5,0.5-0.8,0.7-0.9,0.9l-1.5,1.2l-1.3-1.6l4.1-3.3h2.2V54z"/>
	<path fill="#F7F7F7" d="M324,54h-9v-1.9l3.2-3.3c1-1,1.6-1.7,1.9-2s0.5-0.7,0.6-1.1s0.2-0.7,0.2-1c0-0.5-0.1-0.9-0.4-1.2
		s-0.7-0.4-1.1-0.4c-0.5,0-1,0.1-1.5,0.3s-1,0.6-1.5,1l-1.5-1.7c0.6-0.5,1.2-0.9,1.6-1.1s0.9-0.4,1.4-0.5s1-0.2,1.7-0.2
		c0.8,0,1.5,0.1,2.1,0.4s1.1,0.7,1.4,1.2s0.5,1.1,0.5,1.8c0,0.6-0.1,1.1-0.3,1.7s-0.5,1.1-1,1.6s-1.2,1.3-2.3,2.3l-1.7,1.6v0.1h5.6
		V54z"/>
	<path fill="#F7F7F7" d="M326.6,54l4.8-10.5h-6.3v-2.3h9.2v1.7L329.5,54H326.6z"/>
	<path fill="#F7F7F7" d="M335.9,52.7c0-0.5,0.1-0.9,0.4-1.1s0.6-0.4,1.2-0.4c0.5,0,0.9,0.1,1.1,0.4s0.4,0.6,0.4,1.1
		c0,0.5-0.1,0.8-0.4,1.1c-0.3,0.3-0.6,0.4-1.1,0.4c-0.5,0-0.9-0.1-1.1-0.4C336.1,53.6,335.9,53.2,335.9,52.7z"/>
	<path fill="#F7F7F7" d="M349.7,47.6c0,2.2-0.4,3.9-1.1,5c-0.7,1.1-1.9,1.6-3.4,1.6c-1.5,0-2.6-0.6-3.4-1.7
		c-0.8-1.1-1.1-2.8-1.1-4.9c0-2.3,0.4-3.9,1.1-5s1.9-1.6,3.4-1.6c1.5,0,2.6,0.6,3.4,1.7C349.3,43.8,349.7,45.4,349.7,47.6z
		 M343.4,47.6c0,1.6,0.1,2.7,0.4,3.4c0.3,0.7,0.7,1,1.4,1c0.6,0,1.1-0.3,1.4-1s0.4-1.8,0.4-3.4c0-1.6-0.1-2.7-0.4-3.4s-0.7-1-1.4-1
		c-0.6,0-1.1,0.3-1.4,1S343.4,46,343.4,47.6z"/>
	<path fill="#F7F7F7" d="M351.3,52.7c0-0.5,0.1-0.9,0.4-1.1s0.6-0.4,1.2-0.4c0.5,0,0.9,0.1,1.1,0.4c0.3,0.3,0.4,0.6,0.4,1.1
		c0,0.5-0.1,0.8-0.4,1.1c-0.3,0.3-0.6,0.4-1.1,0.4c-0.5,0-0.9-0.1-1.1-0.4C351.5,53.6,351.3,53.2,351.3,52.7z"/>
	<path fill="#F7F7F7" d="M365.1,47.6c0,2.2-0.4,3.9-1.1,5s-1.9,1.6-3.4,1.6c-1.5,0-2.6-0.6-3.4-1.7s-1.1-2.8-1.1-4.9
		c0-2.3,0.4-3.9,1.1-5s1.9-1.6,3.4-1.6c1.5,0,2.6,0.6,3.4,1.7S365.1,45.4,365.1,47.6z M358.8,47.6c0,1.6,0.1,2.7,0.4,3.4
		c0.3,0.7,0.7,1,1.4,1c0.6,0,1.1-0.3,1.4-1s0.4-1.8,0.4-3.4c0-1.6-0.1-2.7-0.4-3.4c-0.3-0.7-0.7-1-1.4-1c-0.6,0-1.1,0.3-1.4,1
		S358.8,46,358.8,47.6z"/>
	<path fill="#F7F7F7" d="M366.7,52.7c0-0.5,0.1-0.9,0.4-1.1s0.6-0.4,1.2-0.4c0.5,0,0.9,0.1,1.1,0.4s0.4,0.6,0.4,1.1
		c0,0.5-0.1,0.8-0.4,1.1c-0.3,0.3-0.6,0.4-1.1,0.4c-0.5,0-0.9-0.1-1.1-0.4C366.9,53.6,366.7,53.2,366.7,52.7z"/>
	<path fill="#F7F7F7" d="M378.3,54h-2.7v-7.4l0-1.2l0-1.3c-0.5,0.5-0.8,0.7-0.9,0.9l-1.5,1.2l-1.3-1.6l4.1-3.3h2.2V54z"/>
	<path fill="#F7F7F7" d="M382.1,45.5c0-0.5,0.1-0.9,0.4-1.1s0.6-0.4,1.2-0.4c0.5,0,0.9,0.1,1.1,0.4c0.3,0.3,0.4,0.6,0.4,1.1
		c0,0.5-0.1,0.8-0.4,1.1c-0.3,0.3-0.6,0.4-1.1,0.4c-0.5,0-0.9-0.1-1.1-0.4S382.1,46,382.1,45.5z M382.1,52.7c0-0.5,0.1-0.9,0.4-1.1
		s0.6-0.4,1.2-0.4c0.5,0,0.9,0.1,1.1,0.4c0.3,0.3,0.4,0.6,0.4,1.1c0,0.5-0.1,0.8-0.4,1.1c-0.3,0.3-0.6,0.4-1.1,0.4
		c-0.5,0-0.9-0.1-1.1-0.4C382.3,53.6,382.1,53.2,382.1,52.7z"/>
	<path fill="#F7F7F7" d="M396.2,51.3h-1.5V54H392v-2.7h-5.5v-1.9l5.6-8.3h2.5v8.1h1.5V51.3z M392,49.2V47c0-0.4,0-0.9,0-1.6
		s0.1-1.1,0.1-1.2h-0.1c-0.2,0.5-0.5,0.9-0.8,1.4l-2.4,3.6H392z"/>
	<path fill="#F7F7F7" d="M406.2,47.6c0,2.2-0.4,3.9-1.1,5c-0.7,1.1-1.9,1.6-3.4,1.6c-1.5,0-2.6-0.6-3.4-1.7
		c-0.8-1.1-1.1-2.8-1.1-4.9c0-2.3,0.4-3.9,1.1-5s1.9-1.6,3.4-1.6c1.5,0,2.6,0.6,3.4,1.7C405.8,43.8,406.2,45.4,406.2,47.6z
		 M399.9,47.6c0,1.6,0.1,2.7,0.4,3.4c0.3,0.7,0.7,1,1.4,1c0.6,0,1.1-0.3,1.4-1s0.4-1.8,0.4-3.4c0-1.6-0.1-2.7-0.4-3.4s-0.7-1-1.4-1
		c-0.6,0-1.1,0.3-1.4,1S399.9,46,399.9,47.6z"/>
	<path fill="#F7F7F7" d="M416.4,47.6c0,2.2-0.4,3.9-1.1,5s-1.9,1.6-3.4,1.6c-1.5,0-2.6-0.6-3.4-1.7s-1.1-2.8-1.1-4.9
		c0-2.3,0.4-3.9,1.1-5s1.9-1.6,3.4-1.6c1.5,0,2.6,0.6,3.4,1.7S416.4,45.4,416.4,47.6z M410.1,47.6c0,1.6,0.1,2.7,0.4,3.4
		c0.3,0.7,0.7,1,1.4,1c0.6,0,1.1-0.3,1.4-1s0.4-1.8,0.4-3.4c0-1.6-0.1-2.7-0.4-3.4c-0.3-0.7-0.7-1-1.4-1c-0.6,0-1.1,0.3-1.4,1
		S410.1,46,410.1,47.6z"/>
	<path fill="#F7F7F7" d="M424.5,54h-2.7v-7.4l0-1.2l0-1.3c-0.5,0.5-0.8,0.7-0.9,0.9l-1.5,1.2l-1.3-1.6l4.1-3.3h2.2V54z"/>
	<path fill="#F7F7F7" d="M434.7,41.2L429.9,54h-2.4l4.8-12.8H434.7z"/>
	<path fill="#F7F7F7" d="M438.5,54l-3.7-9.8h2.8l1.9,5.6c0.2,0.7,0.3,1.4,0.4,2h0.1c0-0.6,0.2-1.2,0.4-2l1.9-5.6h2.8l-3.7,9.8H438.5
		z"/>
	<path fill="#F7F7F7" d="M452.5,54h-2.7v-7.4l0-1.2l0-1.3c-0.5,0.5-0.8,0.7-0.9,0.9l-1.5,1.2l-1.3-1.6l4.1-3.3h2.2V54z"/>
	<path fill="#F7F7F7" d="M462.6,41.2L457.8,54h-2.4l4.8-12.8H462.6z"/>
	<path fill="#F7F7F7" d="M466.7,48.7l1.2-1.5l2.8-3h3l-3.9,4.3l4.1,5.6h-3.1l-2.8-4l-1.2,0.9V54h-2.7V40.3h2.7v6.1L466.7,48.7
		L466.7,48.7z"/>
	<path fill="#F7F7F7" d="M479.7,54.2c-1.6,0-2.8-0.4-3.7-1.3s-1.3-2.1-1.3-3.7c0-1.6,0.4-2.9,1.2-3.8s2-1.3,3.4-1.3
		c1.4,0,2.5,0.4,3.2,1.2s1.2,1.9,1.2,3.3v1.3h-6.3c0,0.8,0.3,1.4,0.7,1.8s1,0.6,1.8,0.6c0.6,0,1.2-0.1,1.7-0.2s1.1-0.3,1.7-0.6v2.1
		c-0.5,0.2-1,0.4-1.5,0.5C481.2,54.1,480.5,54.2,479.7,54.2z M479.4,45.9c-0.6,0-1,0.2-1.3,0.5s-0.5,0.9-0.6,1.5h3.8
		c0-0.7-0.2-1.2-0.5-1.5S479.9,45.9,479.4,45.9z"/>
	<path fill="#F7F7F7" d="M484.5,44.2h2.9l1.9,5.5c0.2,0.5,0.3,1,0.3,1.7h0.1c0.1-0.6,0.2-1.2,0.4-1.7l1.8-5.5h2.9l-4.2,11.1
		c-0.4,1-0.9,1.8-1.6,2.3s-1.5,0.8-2.5,0.8c-0.5,0-0.9,0-1.4-0.1V56c0.3,0.1,0.7,0.1,1.1,0.1c0.5,0,0.9-0.1,1.2-0.4
		c0.4-0.3,0.6-0.7,0.8-1.3l0.2-0.5L484.5,44.2z"/>
	<path fill="#F7F7F7" d="M503,51.1c0,1-0.4,1.8-1,2.3c-0.7,0.5-1.7,0.8-3.1,0.8c-0.7,0-1.3,0-1.8-0.1c-0.5-0.1-1-0.2-1.4-0.4v-2.2
		c0.5,0.2,1.1,0.4,1.7,0.6c0.6,0.2,1.2,0.2,1.6,0.2c1,0,1.5-0.3,1.5-0.8c0-0.2-0.1-0.4-0.2-0.5s-0.4-0.3-0.7-0.4s-0.7-0.4-1.3-0.6
		c-0.8-0.3-1.3-0.6-1.7-0.9s-0.6-0.6-0.8-0.9s-0.2-0.8-0.2-1.3c0-0.9,0.3-1.5,1-2c0.7-0.5,1.6-0.7,2.9-0.7c1.2,0,2.3,0.3,3.5,0.8
		l-0.8,1.9c-0.5-0.2-1-0.4-1.4-0.5s-0.9-0.2-1.3-0.2c-0.8,0-1.2,0.2-1.2,0.6c0,0.2,0.1,0.4,0.4,0.6c0.3,0.2,0.8,0.4,1.7,0.8
		c0.8,0.3,1.3,0.6,1.7,0.9s0.6,0.6,0.8,0.9S503,50.6,503,51.1z"/>
	<path fill="#F7F7F7" d="M511.1,41.2L506.3,54h-2.4l4.8-12.8H511.1z"/>
	<path fill="#F7F7F7" d="M521.3,54h-2.7v-5.7c0-0.7-0.1-1.2-0.4-1.6c-0.2-0.4-0.6-0.5-1.1-0.5c-0.7,0-1.2,0.3-1.5,0.8
		s-0.5,1.3-0.5,2.5V54h-2.7v-9.8h2l0.4,1.3h0.1c0.3-0.5,0.6-0.8,1.1-1.1s1.1-0.4,1.7-0.4c1.5,0,2.5,0.5,3,1.4h0.2
		c0.3-0.5,0.7-0.8,1.2-1.1s1.1-0.4,1.7-0.4c1.1,0,2,0.3,2.5,0.9c0.6,0.6,0.9,1.5,0.9,2.7V54h-2.7v-5.7c0-0.7-0.1-1.2-0.4-1.6
		c-0.2-0.4-0.6-0.5-1.1-0.5c-0.7,0-1.1,0.2-1.5,0.7c-0.3,0.5-0.5,1.2-0.5,2.2V54z"/>
	<path fill="#F7F7F7" d="M528.8,44.2h2.9l1.9,5.5c0.2,0.5,0.3,1,0.3,1.7h0.1c0.1-0.6,0.2-1.2,0.4-1.7l1.8-5.5h2.9l-4.2,11.1
		c-0.4,1-0.9,1.8-1.6,2.3s-1.5,0.8-2.5,0.8c-0.5,0-0.9,0-1.4-0.1V56c0.3,0.1,0.7,0.1,1.1,0.1c0.5,0,0.9-0.1,1.2-0.4
		c0.4-0.3,0.6-0.7,0.8-1.3l0.2-0.5L528.8,44.2z"/>
	<path fill="#F7F7F7" d="M547.3,51.1c0,1-0.4,1.8-1,2.3c-0.7,0.5-1.7,0.8-3.1,0.8c-0.7,0-1.3,0-1.8-0.1c-0.5-0.1-1-0.2-1.4-0.4v-2.2
		c0.5,0.2,1.1,0.4,1.7,0.6c0.6,0.2,1.2,0.2,1.6,0.2c1,0,1.5-0.3,1.5-0.8c0-0.2-0.1-0.4-0.2-0.5s-0.4-0.3-0.7-0.4s-0.7-0.4-1.3-0.6
		c-0.8-0.3-1.3-0.6-1.7-0.9s-0.6-0.6-0.8-0.9s-0.2-0.8-0.2-1.3c0-0.9,0.3-1.5,1-2c0.7-0.5,1.6-0.7,2.9-0.7c1.2,0,2.3,0.3,3.5,0.8
		l-0.8,1.9c-0.5-0.2-1-0.4-1.4-0.5s-0.9-0.2-1.3-0.2c-0.8,0-1.2,0.2-1.2,0.6c0,0.2,0.1,0.4,0.4,0.6c0.3,0.2,0.8,0.4,1.7,0.8
		c0.8,0.3,1.3,0.6,1.7,0.9s0.6,0.6,0.8,0.9S547.3,50.6,547.3,51.1z"/>
	<path fill="#F7F7F7" d="M552.5,54.2c-1.2,0-2.1-0.4-2.7-1.3s-1-2.1-1-3.7c0-1.6,0.3-2.9,1-3.8c0.7-0.9,1.6-1.4,2.8-1.4
		c0.6,0,1.2,0.1,1.6,0.4s0.9,0.6,1.2,1.1h0.1l0.2-1.3h2.3v14.2h-2.7v-4.1c0-0.4,0-0.8,0.1-1.5h-0.1c-0.3,0.5-0.7,0.8-1.1,1.1
		S553.1,54.2,552.5,54.2z M553.5,52.1c0.7,0,1.2-0.2,1.5-0.6s0.5-1.1,0.5-2v-0.3c0-1.1-0.2-1.8-0.5-2.3c-0.3-0.5-0.8-0.7-1.6-0.7
		c-1.3,0-1.9,1-1.9,3c0,1,0.2,1.7,0.5,2.2C552.3,51.8,552.8,52.1,553.5,52.1z"/>
	<path fill="#F7F7F7" d="M563.5,54h-2.7V40.3h2.7V54z"/>
	<path fill="#F7F7F7" d="M572.3,56.8h-7.5v-1.2h7.5V56.8z"/>
	<path fill="#F7F7F7" d="M582.5,54h-2.7v-5.7c0-0.7-0.1-1.2-0.4-1.6c-0.2-0.4-0.6-0.5-1.1-0.5c-0.7,0-1.2,0.3-1.5,0.8
		s-0.5,1.3-0.5,2.5V54h-2.7v-9.8h2l0.4,1.3h0.1c0.3-0.5,0.6-0.8,1.1-1.1s1.1-0.4,1.7-0.4c1.5,0,2.5,0.5,3,1.4h0.2
		c0.3-0.5,0.7-0.8,1.2-1.1c0.5-0.3,1.1-0.4,1.7-0.4c1.1,0,2,0.3,2.5,0.9c0.6,0.6,0.9,1.5,0.9,2.7V54h-2.7v-5.7
		c0-0.7-0.1-1.2-0.4-1.6c-0.2-0.4-0.6-0.5-1.1-0.5c-0.7,0-1.1,0.2-1.5,0.7c-0.3,0.5-0.5,1.2-0.5,2.2V54z"/>
	<path fill="#F7F7F7" d="M597.6,54l-0.5-1.3H597c-0.5,0.6-0.9,1-1.4,1.2c-0.5,0.2-1.1,0.3-1.9,0.3c-0.9,0-1.7-0.3-2.2-0.8
		c-0.5-0.5-0.8-1.3-0.8-2.3c0-1,0.4-1.8,1.1-2.3c0.7-0.5,1.8-0.8,3.3-0.8l1.7-0.1v-0.4c0-1-0.5-1.5-1.5-1.5c-0.8,0-1.7,0.2-2.8,0.7
		l-0.9-1.8c1.1-0.6,2.4-0.9,3.8-0.9c1.3,0,2.3,0.3,3,0.9s1.1,1.4,1.1,2.6V54H597.6z M596.8,49.4l-1,0c-0.8,0-1.4,0.2-1.7,0.4
		s-0.6,0.7-0.6,1.2c0,0.8,0.4,1.1,1.3,1.1c0.6,0,1.1-0.2,1.5-0.5c0.4-0.4,0.6-0.8,0.6-1.4V49.4z"/>
	<path fill="#F7F7F7" d="M609.1,51.1c0,1-0.4,1.8-1.1,2.3s-1.7,0.8-3.1,0.8c-0.7,0-1.3,0-1.8-0.1c-0.5-0.1-1-0.2-1.4-0.4v-2.2
		c0.5,0.2,1.1,0.4,1.7,0.6c0.6,0.2,1.2,0.2,1.6,0.2c1,0,1.5-0.3,1.5-0.8c0-0.2-0.1-0.4-0.2-0.5s-0.4-0.3-0.7-0.4s-0.7-0.4-1.3-0.6
		c-0.8-0.3-1.3-0.6-1.7-0.9c-0.4-0.3-0.6-0.6-0.8-0.9c-0.2-0.3-0.2-0.8-0.2-1.3c0-0.9,0.3-1.5,1-2c0.7-0.5,1.6-0.7,2.9-0.7
		c1.2,0,2.3,0.3,3.5,0.8l-0.8,1.9c-0.5-0.2-1-0.4-1.4-0.5s-0.9-0.2-1.3-0.2c-0.8,0-1.2,0.2-1.2,0.6c0,0.2,0.1,0.4,0.4,0.6
		c0.3,0.2,0.8,0.4,1.7,0.8c0.8,0.3,1.3,0.6,1.7,0.9s0.6,0.6,0.8,0.9S609.1,50.6,609.1,51.1z"/>
	<path fill="#F7F7F7" d="M615.3,52c0.5,0,1-0.1,1.7-0.3v2c-0.7,0.3-1.5,0.4-2.5,0.4c-1.1,0-1.9-0.3-2.3-0.8s-0.7-1.4-0.7-2.4v-4.7
		h-1.3v-1.1l1.5-0.9l0.8-2.1h1.7v2.1h2.8v2h-2.8v4.7c0,0.4,0.1,0.7,0.3,0.8S615,52,615.3,52z"/>
	<path fill="#F7F7F7" d="M623.5,54.2c-1.6,0-2.8-0.4-3.7-1.3s-1.3-2.1-1.3-3.7c0-1.6,0.4-2.9,1.2-3.8c0.8-0.9,2-1.3,3.4-1.3
		c1.4,0,2.5,0.4,3.2,1.2s1.2,1.9,1.2,3.3v1.3h-6.3c0,0.8,0.3,1.4,0.7,1.8s1,0.6,1.8,0.6c0.6,0,1.2-0.1,1.7-0.2s1.1-0.3,1.7-0.6v2.1
		c-0.5,0.2-1,0.4-1.5,0.5C624.9,54.1,624.2,54.2,623.5,54.2z M623.1,45.9c-0.6,0-1,0.2-1.3,0.5s-0.5,0.9-0.6,1.5h3.8
		c0-0.7-0.2-1.2-0.5-1.5S623.6,45.9,623.1,45.9z"/>
	<path fill="#F7F7F7" d="M635.1,44c0.4,0,0.7,0,0.9,0.1l-0.2,2.5c-0.2-0.1-0.5-0.1-0.8-0.1c-0.9,0-1.5,0.2-2,0.7
		c-0.5,0.4-0.7,1.1-0.7,1.8v5h-2.7v-9.8h2l0.4,1.7h0.1c0.3-0.6,0.7-1,1.2-1.3C634,44.2,634.5,44,635.1,44z"/>
</g>
<polyline fill="#ED1E79" points="180,99 180,117 162,108 "/>
<g>
	<g>
		<path fill="#F7F7F7" d="M340.4,135h-2.7v-7.4l0-1.2l0-1.3c-0.5,0.5-0.8,0.7-0.9,0.9l-1.5,1.2l-1.3-1.6l4.1-3.3h2.2V135z"/>
		<path fill="#F7F7F7" d="M352.9,128.6c0,2.2-0.4,3.9-1.1,5c-0.7,1.1-1.9,1.6-3.4,1.6c-1.5,0-2.6-0.6-3.4-1.7
			c-0.8-1.1-1.1-2.8-1.1-4.9c0-2.3,0.4-3.9,1.1-5s1.9-1.6,3.4-1.6c1.5,0,2.6,0.6,3.4,1.7C352.5,124.8,352.9,126.4,352.9,128.6z
			 M346.6,128.6c0,1.6,0.1,2.7,0.4,3.4c0.3,0.7,0.7,1,1.4,1c0.6,0,1.1-0.3,1.4-1s0.4-1.8,0.4-3.4c0-1.6-0.1-2.7-0.4-3.4
			s-0.7-1-1.4-1c-0.6,0-1.1,0.3-1.4,1S346.6,127,346.6,128.6z"/>
		<path fill="#F7F7F7" d="M354.6,133.7c0-0.5,0.1-0.9,0.4-1.1s0.6-0.4,1.2-0.4c0.5,0,0.9,0.1,1.1,0.4c0.3,0.3,0.4,0.6,0.4,1.1
			c0,0.5-0.1,0.8-0.4,1.1c-0.3,0.3-0.6,0.4-1.1,0.4c-0.5,0-0.9-0.1-1.1-0.4C354.7,134.6,354.6,134.2,354.6,133.7z"/>
		<path fill="#F7F7F7" d="M364.1,126.8c1.2,0,2.2,0.3,3,1c0.7,0.7,1.1,1.7,1.1,2.9c0,1.4-0.4,2.5-1.3,3.3s-2.2,1.2-3.8,1.2
			c-1.4,0-2.6-0.2-3.5-0.7v-2.3c0.5,0.2,1,0.4,1.6,0.6s1.2,0.2,1.7,0.2c1.7,0,2.5-0.7,2.5-2c0-1.3-0.9-1.9-2.6-1.9
			c-0.3,0-0.7,0-1,0.1s-0.7,0.1-0.9,0.2l-1.1-0.6l0.5-6.5h7v2.3h-4.6l-0.2,2.5l0.3-0.1C363.1,126.8,363.6,126.8,364.1,126.8z"/>
		<path fill="#F7F7F7" d="M369.6,129.5c0-2.5,0.5-4.4,1.6-5.7s2.7-1.9,4.8-1.9c0.7,0,1.3,0,1.7,0.1v2.2c-0.5-0.1-1-0.2-1.5-0.2
			c-0.9,0-1.7,0.1-2.3,0.4c-0.6,0.3-1,0.7-1.3,1.2s-0.5,1.3-0.5,2.3h0.1c0.6-1,1.5-1.5,2.8-1.5c1.1,0,2,0.4,2.7,1.1s1,1.7,1,3
			c0,1.4-0.4,2.5-1.2,3.3s-1.8,1.2-3.2,1.2c-0.9,0-1.8-0.2-2.5-0.7s-1.3-1.1-1.6-1.9S369.6,130.7,369.6,129.5z M374.2,133
			c0.6,0,1-0.2,1.3-0.6s0.5-0.9,0.5-1.7c0-0.6-0.1-1.1-0.4-1.5c-0.3-0.4-0.7-0.5-1.3-0.5c-0.6,0-1,0.2-1.4,0.5s-0.6,0.8-0.6,1.2
			c0,0.7,0.2,1.3,0.5,1.8S373.7,133,374.2,133z"/>
		<path fill="#F7F7F7" d="M380.3,133.7c0-0.5,0.1-0.9,0.4-1.1s0.6-0.4,1.2-0.4c0.5,0,0.9,0.1,1.1,0.4c0.3,0.3,0.4,0.6,0.4,1.1
			c0,0.5-0.1,0.8-0.4,1.1c-0.3,0.3-0.6,0.4-1.1,0.4c-0.5,0-0.9-0.1-1.1-0.4C380.4,134.6,380.3,134.2,380.3,133.7z"/>
		<path fill="#F7F7F7" d="M394.4,132.3h-1.5v2.7h-2.7v-2.7h-5.5v-1.9l5.6-8.3h2.5v8.1h1.5V132.3z M390.2,130.2V128
			c0-0.4,0-0.9,0-1.6s0.1-1.1,0.1-1.2h-0.1c-0.2,0.5-0.5,0.9-0.8,1.4l-2.4,3.6H390.2z"/>
		<path fill="#F7F7F7" d="M395.7,133.7c0-0.5,0.1-0.9,0.4-1.1s0.6-0.4,1.2-0.4c0.5,0,0.9,0.1,1.1,0.4s0.4,0.6,0.4,1.1
			c0,0.5-0.1,0.8-0.4,1.1c-0.3,0.3-0.6,0.4-1.1,0.4c-0.5,0-0.9-0.1-1.1-0.4C395.8,134.6,395.7,134.2,395.7,133.7z"/>
		<path fill="#F7F7F7" d="M407.2,135h-2.7v-7.4l0-1.2l0-1.3c-0.5,0.5-0.8,0.7-0.9,0.9l-1.5,1.2l-1.3-1.6l4.1-3.3h2.2V135z"/>
		<path fill="#F7F7F7" d="M419.7,135h-9v-1.9l3.2-3.3c1-1,1.6-1.7,1.9-2s0.5-0.7,0.6-1.1s0.2-0.7,0.2-1c0-0.5-0.1-0.9-0.4-1.2
			c-0.3-0.3-0.7-0.4-1.1-0.4c-0.5,0-1,0.1-1.5,0.3s-1,0.6-1.5,1l-1.5-1.7c0.6-0.5,1.2-0.9,1.6-1.1s0.9-0.4,1.4-0.5s1-0.2,1.7-0.2
			c0.8,0,1.5,0.1,2.1,0.4s1.1,0.7,1.4,1.2s0.5,1.1,0.5,1.8c0,0.6-0.1,1.1-0.3,1.7c-0.2,0.5-0.5,1.1-1,1.6c-0.4,0.5-1.2,1.3-2.3,2.3
			l-1.7,1.6v0.1h5.6V135z"/>
		<path fill="#F7F7F7" d="M421.3,126.5c0-0.5,0.1-0.9,0.4-1.1s0.6-0.4,1.2-0.4c0.5,0,0.9,0.1,1.1,0.4s0.4,0.6,0.4,1.1
			c0,0.5-0.1,0.8-0.4,1.1c-0.3,0.3-0.6,0.4-1.1,0.4c-0.5,0-0.9-0.1-1.1-0.4S421.3,127,421.3,126.5z M421.3,133.7
			c0-0.5,0.1-0.9,0.4-1.1s0.6-0.4,1.2-0.4c0.5,0,0.9,0.1,1.1,0.4s0.4,0.6,0.4,1.1c0,0.5-0.1,0.8-0.4,1.1c-0.3,0.3-0.6,0.4-1.1,0.4
			c-0.5,0-0.9-0.1-1.1-0.4C421.5,134.6,421.3,134.2,421.3,133.7z"/>
		<path fill="#F7F7F7" d="M434.7,125c0,0.8-0.2,1.5-0.7,2s-1.2,0.9-2,1.2v0.1c1,0.1,1.8,0.4,2.4,0.9s0.8,1.2,0.8,2
			c0,1.2-0.4,2.2-1.3,2.9s-2.2,1-3.8,1c-1.4,0-2.6-0.2-3.7-0.7v-2.3c0.5,0.3,1,0.5,1.6,0.6s1.2,0.2,1.8,0.2c0.9,0,1.6-0.2,2-0.5
			s0.6-0.8,0.6-1.5c0-0.6-0.2-1-0.7-1.3s-1.3-0.4-2.4-0.4h-1v-2.1h1c1,0,1.7-0.1,2.2-0.4c0.5-0.3,0.7-0.7,0.7-1.3
			c0-1-0.6-1.5-1.8-1.5c-0.4,0-0.9,0.1-1.3,0.2c-0.4,0.1-0.9,0.4-1.5,0.7l-1.3-1.9c1.2-0.8,2.6-1.3,4.2-1.3c1.3,0,2.4,0.3,3.2,0.8
			S434.7,124.1,434.7,125z"/>
		<path fill="#F7F7F7" d="M444.9,125c0,0.8-0.2,1.5-0.7,2s-1.2,0.9-2,1.2v0.1c1,0.1,1.8,0.4,2.4,0.9s0.8,1.2,0.8,2
			c0,1.2-0.4,2.2-1.3,2.9s-2.2,1-3.8,1c-1.4,0-2.6-0.2-3.7-0.7v-2.3c0.5,0.3,1,0.5,1.6,0.6s1.2,0.2,1.8,0.2c0.9,0,1.6-0.2,2-0.5
			s0.6-0.8,0.6-1.5c0-0.6-0.2-1-0.7-1.3s-1.3-0.4-2.4-0.4h-1v-2.1h1c1,0,1.7-0.1,2.2-0.4s0.7-0.7,0.7-1.3c0-1-0.6-1.5-1.8-1.5
			c-0.4,0-0.9,0.1-1.3,0.2s-0.9,0.4-1.5,0.7l-1.3-1.9c1.2-0.8,2.6-1.3,4.2-1.3c1.3,0,2.4,0.3,3.2,0.8
			C444.5,123.3,444.9,124.1,444.9,125z"/>
		<path fill="#F7F7F7" d="M455.6,128.6c0,2.2-0.4,3.9-1.1,5c-0.7,1.1-1.9,1.6-3.4,1.6c-1.5,0-2.6-0.6-3.4-1.7
			c-0.8-1.1-1.1-2.8-1.1-4.9c0-2.3,0.4-3.9,1.1-5s1.9-1.6,3.4-1.6c1.5,0,2.6,0.6,3.4,1.7C455.3,124.8,455.6,126.4,455.6,128.6z
			 M449.3,128.6c0,1.6,0.1,2.7,0.4,3.4c0.3,0.7,0.7,1,1.4,1c0.6,0,1.1-0.3,1.4-1s0.4-1.8,0.4-3.4c0-1.6-0.1-2.7-0.4-3.4
			s-0.7-1-1.4-1c-0.6,0-1.1,0.3-1.4,1S449.3,127,449.3,128.6z"/>
		<path fill="#F7F7F7" d="M456.9,129.5c0-2.5,0.5-4.4,1.6-5.7c1.1-1.2,2.7-1.9,4.8-1.9c0.7,0,1.3,0,1.7,0.1v2.2
			c-0.5-0.1-1-0.2-1.5-0.2c-0.9,0-1.7,0.1-2.3,0.4c-0.6,0.3-1,0.7-1.3,1.2s-0.5,1.3-0.5,2.3h0.1c0.6-1,1.5-1.5,2.8-1.5
			c1.1,0,2,0.4,2.7,1.1s1,1.7,1,3c0,1.4-0.4,2.5-1.2,3.3s-1.8,1.2-3.2,1.2c-0.9,0-1.8-0.2-2.5-0.7c-0.7-0.4-1.3-1.1-1.6-1.9
			C457.1,131.7,456.9,130.7,456.9,129.5z M461.5,133c0.6,0,1-0.2,1.3-0.6s0.5-0.9,0.5-1.7c0-0.6-0.1-1.1-0.4-1.5
			c-0.3-0.4-0.7-0.5-1.3-0.5c-0.6,0-1,0.2-1.4,0.5c-0.4,0.4-0.6,0.8-0.6,1.2c0,0.7,0.2,1.3,0.5,1.8C460.5,132.8,461,133,461.5,133z"
			/>
	</g>
</g>
<g>
</g>
<g>
</g>
<g>
</g>
<g>
</g>
<g>
</g>
<g>
</g>
<g>
</g>
<g>
</g>
<g>
</g>
<g>
</g>
<g>
</g>
<g>
</g>
<g>
</g>
<g>
</g>
<g>
</g>
</svg>
